<?xml version="1.0" encoding="UTF-8"?>
<svg id="Layer_1" xmlns="http://www.w3.org/2000/svg" version="1.1" viewBox="0 0 772.2 568.2">
  <!-- Generator: Adobe Illustrator 29.0.0, SVG Export Plug-In . SVG Version: 2.1.0 Build 186)  -->
  <defs>
    <style>
      .st0 {
        fill: #ececec;
        stroke: #000;
        stroke-linecap: round;
        stroke-linejoin: round;
        stroke-width: .1px;
      }
    </style>
  </defs>
  <path id="AL" class="st0" d="M426.9,431.9l.5.4,2,2.9,1.4.5,1.9,1.3,1.4,3.2v2.2c0,0-.4,2.6-.4,2.6l.3,2.1-.8.8.7,2,.2,1.9,1.2,2.2,1.2,1.1,1.3,2.4,1.6-.2,1.3,1.1v1.1l1.1,1.8-.8,2.6-1.7.8-1.2,3.1-.3,2-.6.5-1.9.3-1.7,1.3,1,2.2-.9.7-.3,1.5-.7.7-2.7-.9-.7-2.5-1.7-2.7-4.9-2.6-1.2-1.1.4-1.5v-1.4c0,0-1.5-2.4-1.5-2.4l.3-2.6.8-2.2-.3-2.7v-2.1c0,0-.6-2.9-.6-2.9l.5-2.1.9-1.3-.2-2.2-1.5-1.1-1.6-.2v-3.1l-.3-.6h1.7l-1.7-2.8,3.2-5.3,1.1.3.8,2.1,3.4-1.2h0Z"/>
  <path id="AD" class="st0" d="M195.6,432.6l-2.8,1.1-.7-.4v-2.1l.9-.7,2.6.6v1.5h0Z"/>
  <path id="AM" class="st0" d="M746.8,476.2l-3.2-2.8-2.3-1.7-1.6-.7-3.5.4-2.9-.9-1.8-.9.5-.6-1.9-3-.8-1.9,1-1.4.2-2.3-1.7-3.3-1.7-1.2-1.3-1.6,4.4-.3,5.3-1.3,3.2.3,1.1-.2h3.5c0,0-.5-.8-.5-.8l2.3-.5,1.3,1.5,1.6,1-.9.9,2.3,1h1.2l3.3,2.5v.7l-1.9,1.5-.2,1.1,3.2,3.4,2.4,1.4,3.2,1.5.2.9-.9,2.5h-3l.6.9,1.9,1.2,6.1,4.4,1.5-.3,2.2.9.2,1.3-1,1.4,1.9,1.4.8,1.5-1.8.5,1.4,1.5.5,2.6h-2.2c0,0-2.5.4-2.5.4l-3-4.7v-1c0,0-3-2.1-3-2.1v-1.7c0,0-.7-1.2-.7-1.2l-1.7.2-1.9.9-2.9-1.6-1.2.2-.3-1.1-1.8-1.7-3.2.9h0Z"/>
  <path id="AT" class="st0" d="M380,338.7l-.9,2.4v.8c0,0,1.7,2.9,1.7,2.9l2.3,2.9-.6.7-.6,1.9.7,2-3.9.3-2.5-.9-1.3,1.4,2.6.7.5,1.1-.5,1.4-2.2,1.2.4,1.5-.5.7,1.1,1.6-.3,1.8-2.5.5-1.8,1.7-1.3.9v1.9c0,0-2.5-.5-2.5-.5l-1.6.2-2.3,1.1-2.8-.2-2.6.2-1.9.7-1,1.3-3,1.2-5-.7-5-.9-2.6-.5-4-.3-8.6-1.5-1.1-.5-3.1-3.5v-2.3l-4.7,1.5-3.1-.2-3.4.3-1.4.6-1.2,2.2-1.1.4-2.1-.4-.9-.8-3-.3-.5-1.5-.8-.3-2,1.9-2.3-.4-1.5-.8-.4-1-3.3-.8.3-.8-1.1-2.5,1-3-.9-.7,1.7-.5.7-.5,3.5,1.6.9,1.4,1.2.3v1.3c0,0,1.5-.5,1.5-.5l1-1.6.2-1.9h2.8c0-.1,2.7.3,2.7.3l1.4,1.9,3.8-.5,1.1-.9,3.9-1.5,5.7-.5v-1.4c0,0,2.1.3,2.1.3l1.5.8,2.5-.5,1.1.5.2,1.1,1.2.9,1.7.4.3-1.5-.3-1.9-1.7-.3.6-1.3v-1.3c0,0-2.6-2.8-2.6-2.8l.6-1.3,3.1-1.8,2.9-.8,1-1,.7-2.9,2.3.9,1.3-.9.2-2.8,2.2,1.2.8,1.3,3.9.4,1.4-.7,2.5.4v-1.1c0,0,1.4-1.6,1.4-1.6h1.2l.3-3.2,1.2-.2,1.6.8,1.4-.4,4.8,1.7h1.5c0-.1,3,1.6,3,1.6l3.8.2,1.2-.9,5.1,1.5,1,1.6h0Z"/>
  <path id="BE" class="st0" d="M242.2,305.6l1.6-.5.8.8h1.2c0,.1,3,2.4,3,2.4l-.4,1.5,1.7.7.4,2-2.3,1.3-.6,1.7-1.7-.7-1.3,1.3-1.4,2.5-.2,1.7,2,2.4-1.1,1.7-3.4.4-2.8-2.6-3.3-1.5h-1.7c0-.1-.4-2.1-.4-2.1l-.6-.6.8-2.7-1.9.6-.5,1.4-1.3.6-2.2.3-2.3-.3-.5-.6.7-1.4-.7-.7.4-1.6-1.6-1.1-3.6-.4-.9.3-.6-2-4.2-1.1-.5-2-1.6-1.8-3.2,1-2.9-2.4v-1.2l-.9-2.2,5.1-2.5,4.7-1.7.3,1.3,1.2.7,1.2-.6,3.9,1.1,3.2-1.5.6-1.2,2.1.3-.2-.9,1.4-.7,1.5.8,1.5-1,1.1,1.3,2.5-.8.5,1.6,2.6,1.4,1.9-.4,1.7,1.3,2.6,1.1-1,2.9-1.1,1.3.7,1.1h0Z"/>
  <path id="BG" class="st0" d="M531.8,413.4l.2,3.7-.9,1.8-2-.6-2.2.5-1,2-1.2,1.2v2.6l.4,4.2-1.6.7-2.9,3.7,3,1.8,1.7,2.2,2.4,2.5.5,1.2-1.7-.2-.9.4h-1.8l-1.5.6-3.4-2.5-3.5.3-1.5,1.1-3.4.4-1,2.2-1.9.3-.3,1.4-1.6-.5-1.6,1.1.7,1,.9,2.7-.2.8-2.5,1.2-1.8-.3-3.2.4-3.4.9-1.7-1.1-3.7-1.2-.9.6-2.4-1.4-1.2-1.7-1.6.5h-4.2c0,0-.2.8-.2.8l-1.9.2-3,1.1-2.6-.2-2.4.2-1,1-3-.2v-4.2l.5-1.7-.9-1-1.7-3.3-3.4-1.8-3.3-3.2,1-.3,1.1-1.7-1.4-2.9v-3.3l1.1-.6h1.8c0,0,1.1-1.7,1.1-1.7l1.6-1.7.3-1.4-1.6-1-1.3-1.6-2.9-1.5-2.4-3.9-.6-2.4.4-2.3,2.1-1,.2-1.9.9-.7,4.3,2.5-1.8,2,.9,1.8,3.7-.6,3.9.3,5.3,1,3.5.4,2.5-.5,9.4,1.7,4.2.2,2.3-.6,1.6-.9,1.2-1.6,3.3-2.1,3.2-1.2,4.4-.9,2.9-.4,4.5,2.3,3.2.4.9.6,1.7-.5,2.5,2.6,2.2.7,2.6.5h2Z"/>
  <path id="BA" class="st0" d="M410.4,396l2.8-.7,1.5.8-.5,2.5-1.6,2.7v2.6c0,0,.4.8.4.8l2.4,1.2,3.3,2.9-.3.8h-3.1c0-.1-.5.7-.5.7l3.2,3.7-.2,2.2-2.5-.3-.7.8-3.2.5,1.4,2.2-2.3.2-2,1.7-.5,1.7v1.5c0,0-1.6.2-1.6.2l-.5.7.6,3,1.1,1.6v.8c0,0-1.2,1-1.2,1l-1.7-.7-6.2-3.8-.6-.9h-1.6c0,0-1.1-.5-1.1-.5l.3-1.6-3-2.5-1.5-1.6-.4-2.2-2.4-1.1-5-4.1-1.7-2-2.8-2.3-2.3-2.4-1.3-4-3.4-3.2-1.9-1.3v-1.4c0,0,.2-5,.2-5l1.2-.6,1.8.4,1.7,1.8,1.8,1,2.7-3.2,3.2.3,1.5-1.2,2.7,1.6h2.5c0,.1,2.8.8,2.8.8l1.7-.6,1.6,1.3,2.2-1,1.8.3,1.8-.2,2.6.7,2.2.2,1.1.8,1.3,2.2,2.2.2Z"/>
  <path id="BY" class="st0" d="M496.7,225.3l1.8,1.3,1.2-.4h1.9c0-.1,3.1,2.1,3.1,2.1l1.6-.9,1.5-.3,3.6,1.2.2,2.3,1.7,1.5,2.1-1.3,2.7-1.1h3.4l2.7.9,2.4,1.8,3.5,1.4.4,2.5-.6,1.8,2.1,2.1.5,1.3-1.3,2v2l4.1,2,.5.5-.5,1.8,1.4.6,1.8,2.4,1.5,1.4,4.9,2.1.7.8-.4,2.8,5.3.5,3.2,1.3v1.1l.7,1.1,2.8,1.4.6,1.7-2.6,1-.3.9-3,1.8-3.5-.2-2.4-1.5h-2.9c0,.1-1.4,2.8-1.4,2.8l3.9,3.3.6,1-.2,1.5,1,1.5.5,3.3,1.6,1.4,1.3,1.8h-5c0-.1-1.4.7-1.4.7l-1.7-.4-1.1.5-2.2,2.3-.8,1.2-1,3.3,1.8,3.6-.8,1.4-2.7-.9-.5-1.2-2-1.1-7.1.6-2.3.8-.6-.5-2.5-3-3.8,1.6-.6,1.1-1-.3-.8-1.3-5.1-1-1.9.7-1.9-.5-1.2,1.7-.8-1.4-1.1-.4h-3c0,.1-1-.2-1-.2l-1.8-2.1h-2.3l-6.1-.9-6.5-1.5-7.8-.4h-2.4c0,.1-2.3.6-2.3.6l-5.9.5-.8,1.4-1.6,1.6-1.9,1.2-1.1-.5-1.9-.3-1.1.5v1.4c0,0-.9-1.6-.9-1.6v-1.3c0,0,.7-1.5.7-1.5l-.4-1.1.2-2.4-.8-1-1.8-1-3.3-1.3v-1.2l2-2.7.8-.5,4-1.7.6-1.6-.9-3.9-1.7-3.6-2.9-4.9-2.1-5.1,2.9.4,1.6-.3,3.7-.3,1.6.9,3.3-1.3h1.8c0,.1.8-2.5.8-2.5l2,.2,1.4-1.2,2.1-.5,1-.7,1.7,2.3,2-.2v-1l-.9-1.1-1.9-.5.5-2,1-1.5-.4-2.3,1.1-3,2.6-.6.8-.6,1-2h3.6c0,.1.4-1,.4-1l1.3-1-3.9-1,.7-3.1v-1.8l2.6-.6,1.2-1.5,1.1-.3,3,.4h3.1c0,.1.4-1.6.4-1.6l2.5-2.4,1.4-.8,1.3-.2h0Z"/>
  <path id="CH" class="st0" d="M286.3,352.9l.8,1.1,2.6,1.3h1.2l.9.7-1,3-.5,1.5v1.7c0,0,1.3.1,1.3.1l3.3.8.4,1,1.5.8,2.3.4,2-1.9.8.3.5,1.5-.5,3.1.5,1.8-1.9-.2-1-.9-1.3.3-.6,1.8,1.5,3.5-1.2.3-1.4-1.9h-.7c0-.1-2.9,1-2.9,1l-2-.8-.8-2.1h-2v3l-.5,1.1-2.2,2.6-.2,1,.7,1.7-1.2.7-.9-1.4-1.3-1.2.4-1.2-2.2-.6-2.4-2-.2-2.5-1-.6-3.4,2.9.6,1.5-1.6,2.2-2.4,1.4-3.1-.8-2.6,1-2.4.5-1.4-.7-.9-1.4-2.3-2.3.5-1.7-.8-2.2-2.2-.3h-1.9c0,.1-2.3,1.6-2.3,1.6l.5,1.3-2.3,1.6h-1.4v-1.1l1.5-1,.3-1.5-.8-.7,1.1-2.9,3-2.2.5-2.9,2.1-.9,3.8-4,.6-.9-1.3-1.1,1.8-1.4h1.1l.8.8,2.7-.3.8-1.4,1.5-.7,1,.3h2.8c0,.1,3.3-.5,3.3-.5l2.6.2-.2-1.5,1.3-1.2h1.3l1.4,1,.8-.2,1.1.9,3.7-.2h0Z"/>
  <path id="CZ" class="st0" d="M351.1,304.3l2.1-.4v-1.9c0,0,3.2.8,3.2.8l.3,1.1,1,1.1,4.6,1.1,2.7,1.1.8.9,3.2-.7,1.8,1.2-.7,1.1-1.6,1.2,1.6.9,2,1.8,1.5,1.9,1,.4,3.5-2.5-1.7-2.4h1.3l2.2.6,3.3,1.9,3.6-.7v1.6l-1.4.5,2.7,2.3,1,.6,1.8-1,3.5,1.8.5-.2,2.7.8.5,1.8,2.8,2.2.5,1.6-2.8.3-2,1.5-.6.8-2.3,1.2-.7,3-1.6.8-2.1,1.9-1.5.7-1.7.2-3.6-.5-1.4,1.2-1.1,2.8-1-1.6-5.1-1.5-1.2.9-3.8-.2-3-1.7h-1.5c0,.1-4.8-1.6-4.8-1.6l-1.4.4-1.6-.8-1.2.2-.3,3.2h-1.2l-1.3,1.6v1.1c0,0-2.6-.4-2.6-.4l-1.4.7-3.9-.4-.8-1.3-2.2-1.2-.6-.7-2.9-2.2h-1.3l-1.3-1.6-2.5-1.5-2.9-2.6h-1.3l-2.3-2-1.8-2.7-1.4-1.5,1.2-1.7-.6-1.6-2.3-1.3-2.5-3.4.5-.7,1.9,2,1.9-2.6,1.1-.6,2.6-.6,2.1.4.8-1.3,2-.3.6-1,1.6-.7h1.1c0,.1.6-1.1.6-1.1l4.4-1,3.5-1.5,1.9-.6-1.5-1.5.8-.6,2.2.4,1.5,1.5v.9l1.4.6.9-.7h0Z"/>
  <path id="DE" class="st0" d="M340.1,259h-3.4c0-.1-.2-1.8-.2-1.8l-1.1-1v-1c0,0,4.6,2.6,4.6,2.6v1.2ZM305.3,250.9h-1.8l-1.4-.7.8-1,1.7.4.7,1.3h0ZM333.6,251.4l-1.3.7h-1.3l-1.3,1.3-2.1-1.1-.5-1.1v-2.2c0,0,.7-1.4.7-1.4l2-.9.9,1.2,1.7.6-.5,1.7,1.7,1.2h0ZM287,244.8l1.8.7,1.6,1.6v1.4c0,0-1.6,1.6-1.6,1.6l3.2-.3.8,1.2,1.7-.4,4.5,1.8,3.2-.9.7,1.4-.6,1.5-2.2,1.6,1.4,1.2,2.1-.2,3.6.9,3.3-2.5,1.1-.5,3.6-.3,5.1-4.5,5.3.9,1.5,1.9,3.7,2.1,3.2-.2,1.3,2,.8,2.5,1.9,1.3,2.8.5.7,2.6,1.8,4.1-.3,2.7-1.9,1.8-.7,1.6,1.6,1.4,3.3,2.1,1.4,1.7-.6,2.6,2,2.3.8,1.9-.7,2.6-.8,1.1,1.9,3.1v1.6l2.2.9,1.6,3.2-.4,2.3-1.6,3.6-.9.7-1.4-.6v-.9l-1.5-1.5-2.2-.4-.8.6,1.5,1.5-1.9.6-3.5,1.5-4.4,1-.6,1.2h-1.1c0-.1-1.6.6-1.6.6l-.6,1-2,.3-.8,1.3-2.1-.4-2.6.6-1.1.6-1.9,2.6-1.9-2-.5.7,2.5,3.4,2.3,1.3.6,1.6-1.2,1.7,1.4,1.5,1.8,2.7,2.3,2h1.3l2.9,2.6,2.5,1.5,1.3,1.6h1.3l2.9,2.2.6.7-.2,2.8-1.3.9-2.3-.9-.7,2.9-1,1-2.9.8-3.1,1.8-.6,1.3,2.5,2.8v1.3c0,0-.5,1.3-.5,1.3l1.7.3.3,1.9-.3,1.5-1.7-.4-1.2-.9-.2-1.1-1.1-.5-2.5.5-1.5-.8-2-.3v1.4c0,0-5.8.5-5.8.5l-3.9,1.5-1.1.9-3.8.5-1.4-1.9-2.7-.4h-2.8c0,.1-.2,2-.2,2l-1,1.6-1.6.5v-1.3c0,0-1.1-.3-1.1-.3l-.9-1.4-3.5-1.6-.7.5-2.2-1.2-5.1-2.3,1,1.6-3.7.2-1.1-.9-.8.2-1.4-1h-1.3l-1.3,1.2.2,1.5-2.6-.2-3.3.6h-2.8c0-.1-1-.4-1-.4l-1.1-1.3v-1.5l.6-2-.2-2.4.3-1.5,1-1.8,1.4-5.5,3.5-3.8v-1.3c-.1,0-1.7-.6-1.7-.6l-4.8-.8-2-1.4-3,.6h-2.1c0-.1-.3-1-.3-1l-1.4-.4-1.8.7-3.5-4.3h-1.4c0-.1.6-3.1.6-3.1l.9-.9v-1.4l-2.8-1.1-1.5-1.6-.3-2.2.6-1.7,2.3-1.3-.4-2-1.7-.7.4-1.5-3-2.3.6-2.4-1.9-1.2.5-.8,2.2-1.6-.7-1.2,1.3-2.8v-1.2l-3.1-4.1.7-1.1,1.8-.7,2.3.8,4.5-1.3.7-1-1-.9.3-.9,2.6-1.6.6-2.6-.8-1-2.6-.3-.7-1,.6-1.6h3.1c0,.1,1.1-3.7,1.1-3.7l.7-1.7v-4.3c-.1,0-1.8-1.4-1.8-1.4l.5-2.7,1.1-1.4.9-.4,4-.3h4.5c0,.1,1.9,2.3,1.9,2.3l-.6,1.2,1.6.3.9-2.4,1.4.8h1.1c0-.1-.5-1.8-.5-1.8l.2-1.6.9-1.4,3.3.6,3.6-.3v-.6c.1,0-2.7-.5-2.7-.5l-.9-1.1-.2-3.9-1.5-.8-1.6.3v-1.5l3.4-1.1v-1l-3.4-3.8-.2-1.6h2.7c0,.1,5.2,1.4,5.2,1.4l3.1-.7,1.5.4h0Z"/>
  <path id="DK" class="st0" d="M305.7,243.8l2.1,1,2.4.3.4,1.9-3.5.7-5.1-2.1v-2.5c0,0,2.4-.2,2.4-.2l1.3.9h0ZM319.4,242.7h-2.3c0,.1-1.9,1.1-1.9,1.1l-.3-1.2,1.6-1,1.2.2,1.7.9ZM290.6,243.9l-1.2.2-1.7-.5-.6-2.3,2.7,1.1.8,1.5h0ZM298.6,245.9l-1.4-1.5,2.5-2.9.7-.2-1.8,4.6ZM348.7,241.9l-2.4-.2-2.4-1v-2c0,0,.6-.9.6-.9l4.5,2.3-.3,1.8h0ZM296.6,233.2l2.3,4.3v2.8c0,0-1.9,1.2-1.9,1.2h-2.1l-5.4-1.7-1.7-2.9v-2.3c0,0,4.7-1.4,4.7-1.4l2.6.8,1.5-.8ZM319.9,233.4l-1,.6-.7-.9.9-.9.8,1.2h0ZM296,230.6h-.9v-3l1.5,1.6-.6,1.4ZM318.6,230.6v1.5c0,0-.6.7-.6.7l-2,.7-1.1,1.8,2,1.2.5,1.5-1,.7-2.6.7v5.6l-2.2.6-1.5-2.1v-.9c0,0-1.4-3.1-1.4-3.1l-2-.4h-2.2c0,.1-1.5-1.7-1.5-1.7v-2.1c0,0-.9-2-.9-2l-1.3-.6.4-1.4,3.1-.2,1.5-1.9v-.9l1.8-.2.8.7v2.6c0,0,1.7.5,1.7.5l1.1-2.9-.9-1.1,3.9-2.2h1.1c0-.1,3,.8,3,.8l-.4,2.1.7,2h0ZM287,244.8l-1.5-.4-3.1.7-5.2-1.3h-2.7c0-.1-.5-2.2-.5-2.2l-.8-1.4,1.1-.3-.9-3.9-3.2-1.3-2.5-1.4.5-5.6-1-2.3v-6.9c.1,0,1.4-.1,1.4-.1l3.1.8,1.5.9.6-1.9,1.6-1.6,2-.8,1.6,1.3.3-4.5-1.6-.5-1.3.4-1.3,1.9-1,2.4-1.9.2-1.5.7-2.4-1.4v-1.4c.1,0,1.7-1.9,1.7-1.9l2-1.9h2.2l1.6-.6h3.9c0,.1,2.8-1.2,2.8-1.2l2.8-3.6,1.5-1.5,3.3-.5,3-1.7-.8,2.5,1.2,1.7v3l-.9,1-1.4,2.5.2,5.6,2.5,1.5h4.1l1,1.1-.7,2.2-2.6,1.4h-.9l-1.4-1.1-1.1.9-1.2,5.1h-2c0-.1-1.2.4-1.2.4l1.4,1.2-1.3.8-3.4,3.1,1.1,3.4-.2.9-1.5,1.3-.6,1.1,2.3.3,1.3,2.9h0Z"/>
  <path id="EE" class="st0" d="M427.7,189.1l3.9.2,4,1.8-1.8.7-3.7,2.5-.3.5h-2.6c0-.1-1.4.1-1.4.1l-1,.9-.9,2.8-1.6.5-.3-.9,1.6-1.8-1.5-1.4-1.9-.7.9-1.8-1.6-1.6,1.5-.2,1,.5,2-.5.5-1,3.2-.6h0ZM436,190.1l-.9.2-2.4-1.1,1-1,1.9.5.4,1.4ZM430.6,186.1l-.8.7-.9-.6-.9,1.6-1.3.3-1.9-2.5-2.9-.5-1.3-.7,4.5-.4,1.2-1.6h1.3c0,.1.4,1,.4,1l2.1.3.9,1-.4,1.4h0ZM483.8,205l-1.9-.2-3.4-1-4,1.2-2.8-1.1-3.5-2.7-.6-.7-2.3-.5-5.6-2.5-1.1.7-1.5-1-8.4,2.8,1-3.4v-3.6c0,0-2.2-.4-2.2-.4l-.9,1.3-1.3.3-4.1-1.3-1.2-2.1-1.6-1.1-.8-1.2v-1.8l-1.5-2,.7-1.1-.7-2.8,3-1.2,3.3-.2.9-1.3,2-1.3,2.3.2,3.1-1h6.3c0,.1.4-1.6.4-1.6h3.2l7.6,1.2h1.8l2.8,1.2,1.4.3h4l6.3.5,1.2-1,1.5,1.2-1,1.4-1.2.4-.9,3.2-.8,1-1.7-.3-2.5.2-2,.5-1.3,1.1v1.1c0,0,2.7,2.3,2.7,2.3l1.4,2.8,2.6,2.2.8,1.3,2.4,2.9,1.8,2.5-2.3.6-1.2,2-.2,2h0Z"/>
  <path id="FI" class="st0" d="M418.7,163.8l2,.2-.6,2.8-2.3-1.8.9-1.2h0ZM416.8,164.3l-2.1-.6.9-.8,1.2,1.4h0ZM410.3,161.6l-1.5.7-.3-1.7,1.8,1ZM435.8,98.7l-1.5.5-1.3-.3-.2-.9,2-.6,1,1.3ZM465.9,44.1l-3.7,1.3,1.6.8.8,1.2-2,3.2v.6c0,0,3.2,4,3.2,4l7.2,1.7,2.3,1.8,3.6,2.3,1.8.9v1.9c0,0-2.9,3-2.9,3l-2.6,3.1-1.2,1.7.4,1.7,2.6,2.1,2.3,2.2,3,3.5,3,2.5,3,4.2.4,1.4-3.7.7,1.2.9-.6,1.3.3,1.9-.5,1.5,1.9.3.3,1.3-1.7,1v.9l1.4,1.7,1,.6,3.2.6.9,1.6-1,1.7,1.8,2.2,4.5,1.8.7,1.3.2,1.7-2.4,3-2,.8.7.8,4.5,2.6,6.6,2.9,2.6,1.3,2.1,1.9,2.2,1.6.5,1-1.6,4.5-.7,1.2-2.2,2.2-3.4,2.8-2.3,2.3-5.3,5.9-1.9,1.5-2.1,2.2-4.9,3.3-.7.8-2.5,1.5-5.6,5.2-3.5,1-2.6-1.1-1.8.2-1.2.8-2.5.2-2,.6-1-.7-.7.6-1.9.2-2-1,.3,1.5-3.3,1.5-.8-.9-2,1-2.1.2-1.1.8-5.9,1.1-1.5,1.3-1.2-.3-6.7,1.1-2.9-.2-2.7,2-1.8.4,1.5-3-2.4-1.1-1.2-1.6-.7.4-.3,1.5-1.5.8h-2c0-.1-.4-2.5-.4-2.5l.8-2.3-3.6-.6-3.8-1.4h-.9c0-.1-.7-1.4-.7-1.4l-2,.9-2.1-.9-1.7-5.3v-1.3l.9-1.6v-3.4c0,0-.7-2-.7-2l1.1-.6-.9-1.6-2.2-3-1.6-1.1.5-3.3-.6-1.6-1.9-1.1-1.1-2.9.6-2.4,2.4-2.2v-1.2l.9-1.1-.5-1.3,2.7-.5,1,.4,2.4-.4,1.9-1-1.1-1.8,1.5-.7,1.2-1.2v-1c0,0,2.2-.5,2.2-.5l2.4-1.9,2.3-1.1,2.3-1.9h1.1c0-.1.3-1.4.3-1.4l2.5-1.9.8-1.6,2.3-1.8,2.2-3.9,3.8-1.2,3.8.3-.6-1.7,1-.3-.6-1.3-1-.6v-4.6l-1.3-.9-4.5-1.6h-1.7c0-.1-1.2-1.3-1.2-1.3l-4.6-.7-1.6-2.5-1.9-2.2-1.8-.6-1.3-2.6v-1.3l1.5-1.3v-1.8c0,0,.6-1.4.6-1.4l-.6-.9-3.3-2.6-.8-1.6v-1.1c0,0,1.1-.8,1.1-.8l-.6-1.3-2.8-.4.3-1.9-.7-1.4-.4-2.4,1.1-1-1.8-.9-1.9-1.5h-1.4c0-.1-1.2-1.7-1.2-1.7l-3.5-1.8-8.3-1.7-4.2-1.8-4.8-2.3-2.9-1.1-.4-.9-2.9-.8.5-.4h2.1l1.9.4.5-.6-1-1.4,1.9-1.1h3.6l7.9,5.5,1.4,1.8,6.9.6.8.5h1.8c0-.1,3.7-1,3.7-1l1.2-1.2h1.5c0,.1,3.6,1.2,3.6,1.2l3.9.8,2.6.8,1.3-.6.5-1.7,1.6-1.3,2.1-.3,1.5-1.4-.7-3.2.6-1.7.7-3.8,2.6-1.7,1.7-1.8,2.1-.2,3.8.4.9-.2,3.5-1.6,2.9-.3,1.8,1.2,4.2,2,4.2,1.1,3.6.8,2.6,2.7-.7,1-3.2,2.9v.7l1.7,1.3h0Z"/>
  <path id="GB" class="st0" d="M161.3,306.9l-1.6,1.3-1.3.2-2.5-1.2v-.5l2.5-1.1,2,.6.9.7ZM124.8,267.2l1.3.9-3.4,1.9-1.2-.6-.9-1.2v-1.9c-.1,0,1.1-.5,1.1-.5h1.8l1.3,1.4h0ZM101.5,255.8l-2.1.4h-2.9v-1.5c.1,0-1.3-.5-1.3-.5l-1.8-2.7-1.3-.5-1.9,1.6.5.9-2.4,1.8-2.9-.3-.8-.7-2.1-.4-.2-1-2.7-2,1-1.4,2.9-.9-1-1.4.2-.8h1.6c0,.1,2.2-.7,2.2-.7l1.2-1.6,1-2.3,1.9-.9,1.3.6,1.9-2h2.8c0-.1,2.7-.8,2.7-.8l3.9.3,1.1,1.1.5,1.7,1.3,1.7,1.7,1.4v.9l-2,1.1,3.5.3,1.2,2.5-2.1.3v1.4c-.1,0,1,.2,1,.2l-.6,1.4-2.6.6-1.4,2.2-1,.5-2.3-.5h0ZM115.2,235.6l-2.6-.5-.6-2,.9-1.4,1.8.7.6,1.3v1.9q-.1,0,0,0ZM103.7,228.5l.7,3.4-2.4,1.3-.8-2.4-1.4,1,.2-1.9,1.5-.3,2.2-1.1h0ZM105.4,230.2l-1.1-1.2,1.6-2.2,1.7-1v1.6c-.1,0-2.2,2.8-2.2,2.8h0ZM107.9,222.4l-4.6.8.6-3-1.9-.9.3-.9,2.1-.5,1.7,1.7,2.1.6-.3,2.2h0ZM91.7,211l-1.5-.2-.4-1.4.2-2.3,1.6.2v3.7q.1,0,0,0ZM104.5,205.3v2.8c-.1,0,2.8.8,2.8.8h2c0-.1.4.5.4.5l-3.3,2.7h-.7c0-.1-.2-2.3-.2-2.3l-1.4.3-1.9-.3-1.2-1.9-2.7-.5-.9-1.1,1.4-.6.3-1.2,2.8-.6,1.5-.7.9,1,.2,1.1h0ZM92.6,202.7l1.2.9-1.1,1.3h-1.5l-2.2-1,.2-.5,3.4-.7h0ZM104.4,192.8l-1.6,2.6-1,.7-.2,1.7-3,1.6-3.2,2.4-1.4-1,2.6-1.7-2.1-1-.2-2.6.8-.7,1.4.7,1.9-.3-.7-1.2,6.3-3.2.4,2h0ZM139.2,190.6v1.2l-1.3,1.6-2.2,1.2-4.2,2.8-2.5,1.3-.5,1.6h1.4c0,.1.2.9.2.9l-2.2,1.6-.6,1.5,3-.4,5.3-1.5,3.6.5,2.6-.3,6.9.2,1.9-.3,2.3,1.3,1,1.7-2.8,3.4-.8,2.3-2,3.5-1.9,2-2,2.5-2.1,1.1-3.1.5,4.5,1.9-1.4,1.8h-2.4c0,.1-2.3,1.8-2.3,1.8l-2.1.7,3.6,1.1,2.4-1h2.7c0-.1,5.2,1.8,5.2,1.8l3.6,3.4,2,1.5.5,1.1,2.1,6.9,1.5,3.8,1.6,1.8,4.5,1.6,1.1.6,3.4,3.3,3.4,2.4-1.4,1.5.4,1.2,2.1,2.9.3,1.6h-1.3c0-.1-2.3-1.5-2.3-1.5l-.3.7,5,3.3,1.6,2,1,2.7-.6,1.1-3,2.7,2.8,1.4,1.2-.2,2-2.1,1.7-.2,4.2.3,3.8,1,3.3,2.1.7,1.1.4,3.1-2.2,5.8-2.8,1.9-.5,1.7-2.1.9-1.7-.3-2.4,1.2,1.7.6v1.7l-1.1.6-2.5.2,1.1,2,2.5.4,4.3-.2,1.9.2-.2,2.7-.4.4-3.8,1.7-1,1.8h-2.2c0-.1-1.1.6-1.1.6l-5.7,1.9-4.9-.8h-2.9c0,.1-4,.7-4,.7l-4.2-1.2-1.8-.2-2.8,1.7-4.2.5-2-.2.9,1.5-.9.4-3.8-.5-1,.5-1.4-.2-2.7-1.4h-2.6c0-.1-4.9,1.1-4.9,1.1l-1,1.3-1.3,3.5-1.1,1.2-1.4.2-4.5-2.5-1.5.5-2.5.3-2.7.7-3.9,2.4-.9,1.5-1.3.2-1.1-.9-1.4-.3-2.3.8-.3-1.3,1-1,2.8-.7,2.5-1.9,2.2-2.3,4.6-3.8.8-3.1,2.7-.7,1.4-2.5,4.1-.6h2.8l2.8.5h2.9c0-.1,1.1-.8,1.1-.8l1.9-2.4,3.6-3-4.7,1-3.8,2.3-3.2-.4-2.3-1.9-2.1-.8-2.1.4-.7-.9-2.4-1.7h-2.6l-3.6,1.7-2.6-1.2-.9-2.3.3-1.4,1.1-.7,2.5-.6,3.8-1.7,2.2-.7,2.8-1.9,1.2-2.3-.3-2,.5-1.4-.9-1.7.3-1.5-3,.3-2.7,1.2-.7-1.1,2.8-1.8,1-1.4,2.6-1.7,3.6-1.3h1.9c0,.1,3.7-.6,3.7-.6l2.7,1.3-.8-2.1,1.2-.4v-2.4c.1,0,1.7-2.2,1.7-2.2l-1.2-.6v-2c.1,0,1.6-.8,1.6-.8l.7-2.6-1.7-.5-2.1.6-1.7-1.5-2.8-3.6-.3-1.4,1.6-3.1,2.3-2-1.9-.8-1.4.2-2.7,1.2-2,1.3h-2.1l-.8-.9h-1.1c0,.1-2.5,1.2-2.5,1.2l-3.5-1.3-1.1,2.3-2.6-2.5-.3-1.9h1.3l1.2-2.4,2.9-4,.6-1.2-.5-1.4-1.9-1.5.3-2.6.8-1,1.5-.4-1.9-1.2-2.9.9-1.8.9.3-2-.6-.4-1.5,1.4v3.3c.1,0-2,5.7-2,5.7l-1.1.9-1.4-.5,1.1-3.9,1.4-2.5-.6-.3.3-3.6,1-2.9,1.7-3.8,2.2-3.5-4.1,2.7-1,.5-2.4-.4-.8-.7-1-2.3,1.8-.2,1.7-1.1-1.5-.7,1.5-.9,1.7-2.1.4-1.9-1-1.5-1.6-.6-.2-.9,1.7-1.9-.7-1.5,1.6-3.1h3c0,.1,1.9-.3,1.9-.3l-2.3-2,.7-2.9,3.7-.3-.8-1.8.3-2,1.6-.9,1.3.2,1,.9,2.6-.9.6.8,2.8-.6,3.7-.3,4.5-.6,2.2-.4,2.3.2-.6,1.7h0ZM138.6,186.6h-1.3c0,.1-1.3-1.3-1.3-1.3l1.5-.3,1.1,1.6h0ZM139.9,183.2l2.7.6-.6,1.4-1.4-.7-2,.3-1.9-1,.4-2.1h1.7c0-.1,1.2.4,1.2.4v1.1q-.1,0-.1,0ZM143.6,180.9l-1,.3-.4-1.2-1.7-.6.4-.8,2.7,2.3h0ZM159.7,161.4l1.6,1.8,1,.5-1.3,3.8-.2,1.6-1,1.7-.8-.4.9-2.9-.5-1.1-1.7.3-.4-.9,1.6-1.4-.8-2-1.1-.2,1.5-1.6,1.2.8h0ZM162.6,161.8l-1.4-1.3,1.3-.6v1.9Z"/>
  <path id="GE" class="st0" d="M745.1,451.5l-2.3.5.5.7h-3.5c0,0-1.1.3-1.1.3l-3.2-.3-5.3,1.3-4.4.3-1.3-1.2-1.9-.2-1.1-1.7-3.5-2.5-1.2-.4-.6-1.1-1.4-.3-1.4.4-.9,1.9-3.4-.8h-3.6c0,0-1.1.9-1.1.9l-4.3-1.3,1.9-3,.4-1.7-.4-2.4-1.7-2.7-3.7-8-1.1-1.2-4-1.4-1.1-1.6-3.2-2.1-4.1-.9-4.8-2.9-2.9-1.7.9-2.1.8-.2,4.8.9,1.5-.4,5.9,2.5,3.6.7,3.1,1.7,6,.5,2.8-.6h1.8l2,1.1,2.4-.2,3.2,1.2,1.5,1.6,3.5,1.4,2.8.8,3.2,1.5.2,2.4,2.5.4,4.3-2.1,2.1-.7,1.8.2,1.9,1.9.8-2.2,4.6,1.7,2.1,1.8h2.8c0,0,2.2.9,2.2.9l-.2,4.2,2.9,1.4,1.6,1.2,3.4.7,3.1,1.5-1.2,2.1-1.2.3v1.3l1.1.8.9,1.5,4.5,2.6.9.8-.2,2-1.8,1.4-4.1-2-1.7.5-3.2-.9-1.4-1v-.7c0,0-3.9-1.4-3.9-1.4l-1.9-.4-3,2.5h0Z"/>
  <path id="GR" class="st0" d="M485.1,541.5h2.3l1.7-1,2.2,3.7h1.7c0,0,3.5-1,3.5-1l3.7.2,1.4,1,2.6.2,2.3.5,3.3-.7.4.4v2.8c0,0,1.3.2,1.3.2l.7-.7,1.7-.6h1.8l1.6-.8-.4,3.5-.9.4h-4.4c0,0-8.1.9-8.1.9l-5.3.4-.7-.2-.7-2.2-3.3-1.1-6.2-1-1.5-.4-3.1.2-1.1-1-.4-1.8.2-1.9,1.4.3.4-1.4,1.9,1.1h0ZM528.5,542.6l-1.6-2.1,1.1-.5,1.2,2.4-.7.2h0ZM473.8,531.2l-1.4.2-.7-2.2.5-1,2.1,2.1-.5.9h0ZM536.5,535.3l-1.7-.4.4-1.8-.7-1.6,2.3-2.7,3.2-1.3.9.9-.9,2.5-.9,1.3.4,1-1.6.2-1.4,1.9h0ZM517.5,525l-1.5,1.2-.9-.6,1.9-1.2.5.6ZM523.7,522.8v-.7l1.3-1.1,2.5-1,1.2.6-2.5,1.4h-1.5c0,0-1,.8-1,.8ZM501.5,517.4l-.9,1.3-1.3-.7.4-1.2,1.1-.6.7,1.2ZM505.1,519l-1.1.6-1.4-2.2,1.9-2,.9.7v1.8c0,0-.3,1.1-.3,1.1h0ZM510.5,510.2l.6-1.6h1.6c0,0,0,1,0,1l-2.2.6h0ZM488.8,509.5l-1-.4.4-1.2,1.1.5-.5,1.1h0ZM520.4,505.8l2.8.7-.7,1-1.6.9-1.7-.9-1.2-1.2,2.4-.5ZM443.7,505.9l.4,1.2-1.1,1-1.6-1.2-1.2-1.8.9-1.1.9,1.2,1.7.7h0ZM496.8,506.6h-1.4c0,0-2.4-2.2-2.4-2.2l.9-1.4.9,1.2h1.3c0,0,.7,2.4.7,2.4ZM439.5,496.9l.3,1.8.9.3,1.3,1.6-.2,1.2-2.1-.8-1,.2-1.1-2-1.3.2.6-1.8h1.4c0,0,1.2-.7,1.2-.7h0ZM510.3,499.4l-1.1.9-1.8-1.7,1.4-1.3-2.1-2.4v-1c0,0,2-.5,2-.5l1.3.9.6,1.2.4,2.6-.7,1.3h0ZM440.1,493.3h-1.3c0,0-.4-.8-.4-.8l.8-2.4,1.1.3.2,2.5-.4.4h0ZM474.7,487.9l.9,1.7,5.5,2.5,2.8.3,1.7,2.6-.2.6,1.5,3.8,1.1.9,2.7.3.4,1.9-.9.8-1.9-.7-2.1-1.6-.4-1.3-2.2-2.9-3.6-.2-1.5-.7-.6-1.7-1.5-.9-2-1.9-1.5-1.1-3-1.1-.6-.7,1.9-1.3,2.1-.5,1.4,1.2h0ZM512.6,482.1v.9c0,0,1.8,1.5,1.8,1.5l.7,1-1.2,2.1-4-.8-.8-.8,1.6-1.3-.9-.5-1.2,1.5-2.2-.7-.9-.9.7-1.4h1.5c0,0,1.7-.7,1.7-.7v-.6l2.3-.2.9.9ZM431.3,480.5l-1.3.3-1.2-.8-1.2-1.9-2.2-2.2.7-1.1,1.6-.4,1.4,1.2-1.1,1.2.8.7.9,2.4,1.6.6ZM499.1,471.9l-.7,1.4v1.3c0,0-3.9-.7-3.9-.7l-.3-2.3h2.2c0,0,.8.7.8.7l1-.9.9.5h0ZM501.5,465l-1.4.4-1.7-1.3,1.4-.5,1.7,1.4h0ZM489.6,462l-1.6.6-1.8-1.1,1.1-2.3h1.3c0,0,1,1.4,1,1.4v1.4ZM505.5,460.3l-.5-.7-2.1-1.2-4.6-.6-2.3-.9-.9.2-2-1-1.2.4-2.5,1.7-1.5-.2-1.6-1-2.2.4-1.7,1.9-1.8,1-1.8-.4h-2.3l-.2,1.1,2,2.1-.5,1,.5,1h2.1c0,0,2.5,1.4,2.5,1.4l-.7.7-3.2-1.2h-1.2c0,0-1.2,1.1-1.2,1.1l3.5,2.7.5,1.4-.6.9-1.5-.8-2.5-3.2-3.1-.6-.4.6,1.2,2.4,2.9,1.7-.6.6-3-1-1.1-1.6-.4-2-5.5-2.8-1.4-2.8-2.2,1.3.4,2-.6,3.8.4,1.3,3.5,3.7,1.3,2.7,2.6,2.1,2.6,3.2.7,1.8-1.3,1.1-1.3-.5.3-1.9-2.2-1.2-1.9,1.2,1.5,2.3.5,1.2-.4,1.3-1.6.8h-2.6c0,0,2.4,1.5,2.4,1.5l3.3,1,1.6,1.1h1.5c0,0,1.7,2.2,1.7,2.2l2.6.6,1.7,2.1,2,.5,1.7.8,1,2.1.3,2.9.6,2.1v1.7c0,0-1,.5-1,.5l-1.3-1.6-4.2-3.6-1-.4-1,.7-2.9.5-1.9,1.3,1.5,1.3v1.2c0,0,.9,1.5.9,1.5l2,.4,2,2.4-3,1-1.1.7-.8-.5-.2-1.2-4.3-2.2-.6.6.7,2.4,1.3,1.6,2.2,4.3,1.3,3.7-.2,2.1,1,1.5v1.5c0,0-1.6-1.2-1.6-1.2l-2.2-2.5-.8-1.5h-2.2c0,0-1.3,3.4-1.3,3.4l.2,1.9-1.6-1.1-.2-2.9-2.1-2.8-.9-.4-1.3-1.9-1.5.6v2.9c0,0-.5,1-.5,1l-2.2-1.9-2.3-3.5-.2-1.8,1.4-1.7-.3-1.2-1.6-2.5-2.1-1.5-1.2-.5-.7-1.6-2-1.3v-1l2-1.7,1-2.6,1.9.5,1.4-.2,2-2.4h1.6c0,0,3.9,2.2,3.9,2.2l4.2,1.2,2.1,1,1.2,1.1,1.6.3-.5-1.4.8-.4h2.1l.2-1.6-2-.6-.8.2-2.4-1.4-2.3-.8-2.2-1.5-1.2,1.3h-1.2l-3.4-.9-2.1.7-4.2.7-1.1-1.3-2.6,1-1-.7-1.9-4.2-1.7-1.9-1.2-.5-.2-1.9,1.5-.2,2.4.9.9-.6-.6-1.6-2.5-.2-1.8.5-2.8-2.2-1.5-1.7-2.2-1.1-1.7-3.4-2.6-2.6,2.7.9.7-.7.3-1.5.9-.7-1-2.2,1.7-1.3,1.9-.3.6-.5.3-2,1.2-3.1,1.7-.8.8-2.6-1.1-1.8v-1.1l4.6-.3.9-.6,2.3.6,2.4-1.3,1.7-2.5.8-.3,3-.4,3.3.6,2.9-1,.2-2.1,2-.3,3,.2,1-1,2.4-.2,2.6.2,3-1.1,1.9-.2.2-.9h4.2c0,0,1.6-.4,1.6-.4l1.2,1.7,2.4,1.4.9-.6,3.7,1.2,1.7,1.1,3.4-.9,3.2-.4,1.8.3,2.5-1.2.2-.8-.9-2.7-.7-1,1.6-1.1,1.6.5,1.2.3,2.3,1.5.9,3.1-3.4,2.5.5,4.4-2.5,3.2-.8.4h0Z"/>
  <path id="HR" class="st0" d="M383.4,425l2.3.4-1.1.9-1.2-1.3h0ZM396.3,426.5h1.6c0,0,.6.8.6.8l6.2,3.8,1.7.7,1.2,1.9-4.8-3.1-4.4-2.5-3.1-.7-4.3-2-.5-.9,5.8,2h0ZM390,423h-.8c0,0-5.6,0-5.6,0l-1.7-.3-.5-1.3,1.8.2.5.6,6.3.8ZM384.7,420.7h-2c0,0-2.6-.7-2.6-.7l.3-1.1,4.8.6-.5,1.2ZM363.5,404.2l-.3.4-3.3-2.7-.3-1.9,2.8,2.7,1.1,1.5ZM358.6,397.7l-1.9-.2.8-1.1,1.1,1.3h0ZM354.4,399.2h-.9c0-.1-1.7-4.3-1.7-4.3l.4-1.2-.8-2,.9-.3.5,2.1,1,.9v1.6c0,0,.6,3.2.6,3.2h0ZM358.1,394.3l-1.5.3-1-1-1.3-.2-1-1,1-.7.5-1.2,3.3,3.8h0ZM407.6,379.6l-.7,1.5,1.6,2.7.2,1.6,1.3.4-.4,2,1.2,1,3,1,.9,1.5h-2.3c0,.1-1.7.5-1.7.5l.7,2.6-1,1.6-2.2-.2-1.3-2.2-1.1-.8-2.2-.2-2.6-.7-1.8.2-1.8-.3-2.2,1-1.6-1.3-1.7.6-2.8-.7h-2.5c0-.1-2.7-1.7-2.7-1.7l-1.5,1.2-3.2-.3-2.7,3.2-1.8-1-1.7-1.8-1.8-.4-1.2.6-.3,5v1.4c0,0,2,1.3,2,1.3l3.4,3.2,1.3,4,2.3,2.4,2.8,2.3,1.7,2,5,4.1,2.4,1.1.4,2.2,1.5,1.6,3,2.5-.3,1.6-3.5-2.8-2.6-1.5-3.1-2.8-3.8-1.1-2.7-1.2-3.3.6-1.8-.2-.7-2.2-5.8-3.9-4.3-4-.8-1.3,3.1-1.2-1.4-.8-3.9-3.4-1.2-1.6v-4.1c0,0-.9-1.7-.9-1.7l-2.9-2.2-1.1-1.1-2.1-.7-1.4.9-.3,1.9-3,5h-1.3l-3.1-4.2-.5-1.9-1.3-3.9.7-.5.5.6,3.3.8,1.4-1.3,1.1.5h3.6c0-.1.6-.4.6-.4l1.2-2.2,2.6,2.1,1.5.7,1.3-.5,2,.7,1.6.2,1.2-.4-.8-2.3.7-.7-1-1.1,2.1-1,2.1-.6.4-1.1-.2-2.2-.9-.9.4-1.4,4.4-1.7.7-1h2v-1.7l.9-.8,2.5.6,2.9,1.2,1.7,1.2.9,1.3,2.7,1.8,2.2,2.2,1.3.7,2.5.6,1.3,1.3,3.3.9,4.9.2,2.5-.9,1.1-1.4,2.9-.4h0Z"/>
  <path id="HU" class="st0" d="M443.2,341.6h1.5l1.4,2.3,2.2.8.9,1.1,2.3.4.9.7.7,1.7-2.2,2.3-4.6,1.1-1.9,2.4-1.2,1v1.7c0,0-1.3,1.4-1.3,1.4l-.7,2.5-1.4,1.5v1.2l-1.6,2.7.2,1.3-2.1,1.5-1.5,4.7-1.3.9-2.6-.3-2.5,2-1.4-.5-3.2.9-1-.5-2.8-.3-1.1.2-2.9-.4-1,.3-1.5,1.6-2.2,1-1.6-.5-2.1,1.3-2.9.4-1.1,1.4-2.5.9-4.9-.2-3.3-.9-1.3-1.3-2.5-.6-1.3-.7-2.2-2.2-2.7-1.8-.9-1.3-1.7-1.2-2.9-1.2-1.9-2.2-1.4-3.3h-2.4c0-.1,1.8-1.8,1.8-1.8l2.5-.5.3-1.8-1.1-1.6.5-.7-.4-1.5,2.2-1.2.5-1.4-.5-1.1-2.6-.7,1.3-1.4,2.5.9,3.9-.3-.7-2,.6-1.9.6-.7,2.1.3,4.2,2.7,1.6.7h4.7c0,.1,7-.3,7-.3l.6-1-.5-1.3.4-1,1.4-.7,4.3-.4,2.4-.6,1-1.5.7-.2,3.5,1.4,5-2.5,1.6-3.5,1.8-.4h2.7c0,.1,2.5.7,2.5.7l4.6-.7,1.4.9,2.2,2.2.6.2,4.3-1.1h0Z"/>
  <path id="IE" class="st0" d="M101.5,255.8l.7,1.1-2.2.4,1.5,5.2.6.9v4.1l.9,3.2v2.5c.1,0-1.2,1.8-1.2,1.8l-.9,2.1-.2,1.8-1.6,2.1-1.5.9,1.6,1.5-2.8.8-2.6-.3-1.3.8-3.9.2-3.7.7-1.7,1.8-2.5.7-1,1-2.3.8-1.7-1.2-1,.2.2,2.1-2.9,1.3-1.8.3-1,.7-5.8,1.4-1.9-.5-3.3.8h-1.2c0-.1,1.6-1.9,1.6-1.9l1.6-1.3-3.8.6-1.4.5-.6-.6,3.2-1.9h-3.3c0,.1-3-.3-3-.3l-.4-1,2.9-2.3,2.4-.9v-.9c-.1,0-5.2.1-5.2.1l.5-1.1,1.7-1h1.8c0-.1,1.5.5,1.5.5l1.1-.8-.6-1.7,3.9-2.3,3-.3,3.3-.7,3.3-.8-2.4-1.2-2.3,1.8-2.6.3-1.9-.5h-2.1l2.7-2,1.6-1.7-.8-.7,2-2.3,3.6-1-1.6-1.3-3.9.2-1.4-1.3h-2.6c0,.1.4-1.1.4-1.1l-3.5-.2.5-1-.6-1.1,2.8-.6-.2-2,1.9-.8,2-.4v-1.1c.1,0-1.9-.2-1.9-.2l-2,.4.8-2.1-.8-1-.4-1.7-.9-1,2.8-.2,1.2-.5h4.7c0,.1,1.9,1.4,1.9,1.4l1.7-1.2,4.8.9.6-2.6,3.8-1.5,1.2-2-3.7.4-3.6-1,.7-.8,2.1-.7,1.9-1.6-.3-1.1,1.7-2.7,3.1-.8h2.4l1.6-.9,1.2,2-1,1,.6.9,1.2-.8-.5-2.1.9-1.3,1.9-.3.6-.8,3.2,1.7-2.5,1.5-.5.7-1.9.9-1,2.3-1.2,1.6-2.2.8h-1.6c0-.1-.2.7-.2.7l1,1.4-2.9.9-1,1.4,2.7,2,.2,1,2.1.4.8.7,2.9.3,2.4-1.8-.5-.9,1.9-1.6,1.3.5,1.8,2.7,1.4.5v1.5c-.1,0,2.8,0,2.8,0l2.1-.4h0Z"/>
  <path id="IT" class="st0" d="M374.8,499.4l-1.2,2.5-2.8,4.3-1.5,5.1.3,2,1.6,1.4-.7.5,1.6,1.8v1.3c0,0-1.7,1.9-1.7,1.9l-.4,1.7v1.5c0,0-2.8-.6-2.8-.6l-1.4.3-3.7-1.4-1.9-2.8-3-2h-3l-1.4-.5-2.9-1.9-3-1.4-2.6-2.1-1.7-.4-1.5-1h-2.9l-2.3-1.6-1.3-2.3,1.3-3.7,1.4-.8.9-1.2,2.3,2.3,1.8-.8,1.4-1.6h2.4c0,0,.5,1,.5,1l1.4.3,2.5,1.6,1.4.4,3.4-1,3,.4,2.8-.5,1.7-.6,1.2-1,1.4-.3,3.5.3,2-1.2.8.2,2-1.2,1.1,1.1h0ZM296.5,457.9l.7.9,1.8,5-.6,1.6-1.3,2,.8,2.8-.6,11.5-.6,2.9-.9.4-2.9-1.2-1.5.3-1.2-.6-.3,3-1.8,2.1-3-.2-.7-.6-2.4-3.8-.4-4.3.6-1.3v-2.5h1.1v-1.8l-1.8-1.2v-1.9l.7-1.4v-2.6c-.1,0-.9-.9-.9-.9l-.8-2.3-2.2-2.4v-3.4c.1,0,3.5.6,3.5.6l1.3-.3,3.1-1.5,2.1-2.5,1.4-.5,1.5-1.8.7.9,2.2.8,1.2,1.5.9.5-.7,1.4,1,.8h0ZM304.8,427.1l.3,1.4-2.5.5-1.1-1.1,2.9-.2.4-.6h0ZM342.7,370.5l-.2.9-3.3,2.3.7,1.4,2.3.7-1.6,2.1.3,1,1.3.2-.4,2,1.9,1.1,1.5,1.3.2,1.3h-1.5c0,.1.7-.5.7-.5l-2-2.2-2,.9-3.2-.9-2.1,2-1.5.4-1.7,1.1-3.2,1.2-1.8-.4-1,.7-.4,3.1.8.6,1.5,2.6,1.7,1.1-.7,1.9-.9.7-1.3-.5-.3,1.7.9,4.5,1.4,3.2,1.2,1.3,2.7,2.2,2.7,1.1,5.1,3.7,2.8,1.1.7.7,1.8,2.8,1.6,3.2,1.8,5.1,1.3,2.5,2.3,2.9,4.8,4.1,4.3,2.9,4,1.9,3,.3,7-.4,2.6.7.4,1.2-.4.9-2.9,2.1v1.7l1.5,1.2,7.1,3.2,7.2,2.6,2.2,1.4,2.7,2.1,6.4,2.9,1.1,1.4,4,3,1.8,2.4.5,1.8-1.5,4.4-1.6-.5-1.9-1.3-3.1-5.4-5-.5-2.9-1.3-.7-1.4-2.3-.4-1.3.9-1.4,2-1.5,3-1.5,4.3v1.7l1.1,1.7,2.9,1,2.4,1.5,1.6,1.6.3,3.8.9,2.1-.9,1.3-1.9-.3-2.5.7-1.7,1.4-.7,1.4.5,3.4-.3,1.4-3.3,2.5-1.6,2.5-1,2.3h-4.3l-1.1-1.5v-2.2c0,0,.5-1.3.5-1.3l1.6-.7.9-2.8-.5-2,1.1-1.6,2.8-.7v-2.9l-1.4-1.3-1.4-5.1-2.4-4.3-1.4-3.8-1.1-1.8-1.4-1-3.7-.3-4.6-2.6-.3-1.1.6-1.1-1.1-2.8-2-1.7-2.6.6h-1.2c0,0,0-1.6,0-1.6l-2-1.3-2.7-.2-.7-.7-2.6-4-1.7-1.7h-2.3c0,0-3.9-.8-3.9-.8l-2,.7-3.2-2.6-2.8-.9-5.7-5.3-1.8-2-3.5-2.2-2.3-3.2-1.8-1.2-4-1.4-.3-1.3-3.1-3.1-1.7-1-1.3-2.1-2.5-.5v-2.7c0,0-1.1-3.5-1.1-3.5l-1.7-2.2-1.2-5.3-.8-1.5-1.8-1.1-4-1.2-5.7-3.4h-1.1c0-.1-3.4-1.4-3.4-1.4l-2.1-.2-2.6,1.2-3.1,3.2-2.5,3.4-.9.6-3.4,1.2-3,.5-.2-1.5,2.1-2.6-.3-2-3.3.6-5.1-2.4-.9-.9v-1.4c-.1,0-.8-1.3-.8-1.3l1.4-2.5.8-.7-.5-1.7-3.2-1.4-1.5-3.1.8-.4,1.9.2,1.7-1.3,1.2-.3.8-2.5-1.8-1.6-1.7-2.6-.9-.6v-1.6c-.1,0,2.5-1.7,2.5-1.7l1.4.7,2.4-.5,2.6-1,3.1.8,2.4-1.4,1.6-2.2-.6-1.5,3.4-2.9,1,.6.2,2.5,2.4,2,2.2.6-.4,1.2,1.3,1.2.9,1.4,1.2-.7-.7-1.7.2-1,2.2-2.6.5-1.1v-2.9h2c0-.1.8,2,.8,2l2,.8,2.9-1.1h.7c0,.1,1.4,2,1.4,2l1.2-.3-1.5-3.5.6-1.8,1.3-.3,1,.9,1.9.2-.5-1.8.5-3.1,3,.3.9.8,2.1.4,1.1-.4,1.2-2.2,1.4-.6,3.4-.3,3.1.2,4.7-1.5v2.3l3.1,3.5,1.1.5,8.6,1.5,4,.3,2.6.5h0Z"/>
  <path id="LI" class="st0" d="M291.6,362.3h-1.2c0-.1,0-1.8,0-1.8l.5-1.5,1.1,2.5-.3.8h0Z"/>
  <path id="LT" class="st0" d="M480.1,232.3v1.8l-.7,3.1,3.9,1-1.3,1-.4,1.1h-3.6c0-.1-1,1.9-1,1.9l-.8.6-2.6.6-1.1,3,.4,2.3-1,1.5-.5,2,1.9.5.9,1.1v1l-2,.2-1.7-2.3-1,.7-2.1.5-1.4,1.2-2-.2-.8,2.6h-1.8c0-.1-3.3,1.2-3.3,1.2l-1.6-.9-3.7.3-1.6.3-2.9-.4-.8-3-1.1-.9-4.5-2.2-2.3-.7-.6.6-1.3-2v-2.1l1-3.1-1.3-1.3-1.4-.6-.9-1.3h-5.7c0-.1-2.4-.7-2.4-.7l-3.9-1.4-2-1.2-1.8.2-.6-1.2.2-1.6-1.1-2.4-1.6-2.9-.7-3.8,2.8-1.7,3.6-1.9,4.7-1.4,5.9.5h4.3c0-.1,1,.8,1,.8l1.6-.7,4.9.5h2.3c0,.1,3.7,1,3.7,1l4.6-.4,1.7-1.3,2.3-.2,2.4,2.9,6.1,1,.9.4,5.4,3.1,2.6,2.1,1.5.7,2.3.5h0Z"/>
  <path id="LU" class="st0" d="M247.6,315.5l.3,2.2,1.5,1.6,2.8,1.1v1.4l-.9.9-.6,3-1.3-.7-2,.6h-1.4l-2.1-1.2,1.1-1.7-2-2.4.2-1.7,1.4-2.5,1.3-1.3,1.7.7Z"/>
  <path id="LV" class="st0" d="M483.8,205l1.9.3.5,1.1,3.2,1.7.7,2.2-.8,1.6-.3,3.1,1.8-.3,1,.6.3,1.2,1.7,2.1,1.3.8,1.9,4.2-.3,1.7-1.3.2-1.4.8-2.5,2.4-.4,1.7h-3.1c0-.1-3-.5-3-.5l-1.1.3-1.2,1.5-2.6.6-2.3-.5-1.5-.7-2.6-2.1-5.4-3.1-.9-.4-6.1-1-2.4-2.9-2.3.2-1.7,1.3-4.6.4-3.7-.9h-2.3c0-.1-4.9-.6-4.9-.6l-1.6.7-1-.9h-4.3c0,.1-5.9-.4-5.9-.4l-4.7,1.4-3.6,1.9-2.8,1.7-.8-2.8-.6-5.5v-2.8c0,0,2-1.6,2-1.6l.8-1.2.6-4.5,2.5-3.6,2.4-.4,3.1-1,3.5-.9,1.4,1.9,4.9,3,1.2,1,2.3,3.4,4.4,1.8,3.1-.6,3.6-2.4,1-1.1v-1.1l-1.2-4.7-1.1-2v-1.3c0,0,8.5-2.8,8.5-2.8l1.5,1,1.1-.7,5.6,2.5,2.3.5.6.7,3.5,2.7,2.8,1.1,4-1.2,3.4,1,1.9.2h0Z"/>
  <path id="MD" class="st0" d="M523.6,387l-2-2.3.9-.7-1.4-5v-2.6c0,0,.8-4.8.8-4.8l-.5-2.9-1.4-2.3-1.4-2.9-3-2.1-1.3-1.7-2.1-1.8-2.5-3.2-1.5-1.3-3-4.9-2.5-3-2.5-1.6h-2.1l.2-.6,2.3-1.4.7.2h4c0,.1,1.2-.9,1.2-.9l.8.3,1.6-1,3.5,1,3.6,2.4,2.5.3.6,1.2,5.6.6,1.4,1.9,1.4,1,1.4-.7,1.4,1.4.6,2.3-.6,3.1.6,1.2,2.3,1.2,2.9,2v2.4l.9,1.9,2,1.3,2.1.8,1,1.6.2,2.9,2.9,1.7-.6.7-2.9.4-1.2-1.3-1.6.6-2.1-.8-1.9-.2-2.1-1-2.5,1.6.5,2.1,1,1.7-.4,2-2.3,1.7v1.3l-2.5,2.9.5,1.4-.4,1-2,.2-1.1.7h0Z"/>
  <path id="MK" class="st0" d="M456,435.6l3.3,3.2,3.4,1.8,1.7,3.3.9,1-.5,1.7v4.2l-2,.3-.2,2.1-2.9,1-3.3-.6-3,.4-.8.3-1.7,2.5-2.4,1.3-2.3-.6-.9.6-4.6.3-1.3-1.1-1.6.2-1.3-2.4-1.2-1.1-1.2-2.2-.2-1.9-.7-2,.8-.8-.3-2.1.5-2.6,1.7.3.5-.8.2-2.6,3.4-1.5h1c0,0,1.6,1.1,1.6,1.1l1.5-1.9,2.1-.4,2.2-.3,2-.9,1.9.3,2.3-.8,1.4.7h0Z"/>
  <path id="ME" class="st0" d="M414.6,416.7l.4,1.2,2.6,1.7,1.9,2,3,1.6,2.1.5,5.3,2.9v1c0,0-1.5.4-1.5.4l-.2.7-2,.4.9,1.5-.2,1.3-3.4,1.2-.8-2.1-1.1-.3-3.2,5.3-.8.3-2.5-.2,1.6,1.9,1.7.8.3.6v3.1l-2.1-1.2-.9-1.8-3.1-2.9-3.5-2v-1c0,0-1.5,0-1.5,0l-1.2-1.9,1.1-1v-.8c0,0-1-1.6-1-1.6l-.6-3,.5-.7,1.7-.2v-1.5c0,0,.4-1.7.4-1.7l2-1.7,2.3-.2-1.4-2.2,3.2-.5h0Z"/>
  <path id="NO" class="st0" d="M230.2,164.7v1.7c.1,0-.9-.1-.9-.1l-.7-1.1-.2-2,.7-.5,1.1,2ZM228.4,153.6h-1.8l.3-1.3.9-.3.6,1.6ZM260.9,121.7l-2.3-.2-1-.8,2.8-.8.7.5-.2,1.3ZM264.5,117.1l-.3-.9,2.7-.6.9,1-3.3.5h0ZM292.5,100.5l-4.2.3-.3-1.1,2.1-.8h1.2l1.2,1.6ZM299.3,90l-2,.3v-1.1c0,0,1.9-.3,1.9-.3v1.1h.1ZM303.4,84.3v-1.1c0,0,.9-1.2.9-1.2l1,.4-.3,1.5-1.6.4h0ZM306.5,59.4l-1.5.7,1.1-2.6,1.1-.7.4,1.5-1.1,1.1ZM315,54.2l2.3.2-.5.8-1.4.3-1.1.8-1.9.2-1.9,1-1.6.3-.4-1.2.9-1h1.3l1-1.2,3.3-.2h0ZM327.4,45.2l2.2,2.1-.3,1.5-1.2.7h-3.3c0,.1-1.6-.8-1.6-.8l-2.2.6-1.6-1.1,1.6-1.4,2.6.4.5-1.7,1.7.3.4-1.5,1.2.9h0ZM333.7,50.2l1.3-1.1,1.5-.4.6-2.2,1.8-.5,1.6,1,.9,1.2-.2,1.1-3.1,1.2-2.5,2-1.6-.2-.7.7-2.4.6-1.7-.9-.9.9-1.4.4-1.2-.4-2.9,1.5-2.8.3-1-1.1,3.1-1.9,5.1-.6,2.9-2.3.4-2.5.6-.9-1.3-.6.2-1.7,2.4-1.7,1.3-1.4,1.5-.3.9,1.1-1.1,1.4-1.6,1.2,1.1,1.5.6,2.4-1.4,2.2h0ZM349.2,36.5l1.4.8,1.5-.3,2.3.7,1,1.5-1.2.9.4,1.7-3.8.5-.9-.5-1.5.9-1.4,1.4-2.2-.6.2-1.6-.3-2.3.7-.5,2.9.3-.4-2,1.3-.9h0ZM473.2,33.9l-1.8.4.2-1.8,1.6,1.4h0ZM380.8,30.1l-1.3.4-1.8-.3-.7-1,2.2-1,1.7.3v1.6h-.1ZM365.7,30.4l1,.7,1.5-.5,1.1,1-1.4.8-.8,1.2h-2c0,.1-2.9,2.4-2.9,2.4v.8c0,0-5.1.5-5.1.5l-1.5-.3,1.7-2.7h1.7l1.7-.8-.3-.8,2.5-2,.6-1.7,1.4-1s.8,2.4.8,2.4ZM370.5,28.4l1.4.2,1.3,1.6h-2.3l-2-1.8s1.6,0,1.6,0ZM407.8,24.1l.5,1.1-3.3,2.1h-1.6c0,0-2.1-1.1-2.1-1.1v-.8c0,0,2-.9,2-.9h.9c0,0,2.7-1.3,2.7-1.3l.9.9h0ZM411.7,23.8l-1.8.5-1.7-.9-.2-1.6.8-.3,3.2,1.2s-.3,1.1-.3,1.1ZM405.3,20.6l-.4.8-2.7,2.1-2.2.7-1.8-.3-.8.6h-2l-2-.6-2-1.2h3.5c0,0,.6-.6.6-.6h1.5l2.8-.4,1.1.3,2.1-1.4h2.3ZM465.9,44.1l-1.7-1.3v-.7l3.2-2.9.7-1-2.6-2.7-3.6-.8-4.2-1.1-4.2-2-1.8-1.2-2.9.3-3.5,1.6-.9.2-3.8-.4-2.1.2-1.7,1.8-2.6,1.7-.7,3.8-.6,1.7.7,3.2-1.5,1.4-2.1.3-1.6,1.3-.5,1.7-1.3.6-2.6-.8-3.9-.8-3.6-1.1h-1.5c0-.1-1.2,1.1-1.2,1.1l-3.7.9h-1.8c0,.1-.8-.4-.8-.4l-6.9-.6-1.4-1.8-7.9-5.5h-3.6l-1.9,1.1,1,1.4-.5.6-1.9-.4h-2.1l-.5.4-5.1.2,2.6,1.6v2c0,0-1.3,1.9-1.3,1.9l-1.6.9,2.9.9-2.5,1.6h-1c0-.1-8.6-1.8-8.6-1.8h-2.9c0-.1-4.1-1-4.1-1l-2.1.5v.8l.8,3.6-2.1,3.1-6.3-1.8-1.5.9-3.7,1.9-1.5,3.5-1.1,1.1-2.7.6-.5,1.1,2.7,2.3,1,1.3-.2,1.4-1.5,1-3.3,2.9-3,2.9-1.3.9,1,2.5-3.3,1.5-2.4.5-3.8.4,1.4,3.9-.6,2.7v4.7c0,0-3.4,5-3.4,5l-4.4,5,4.7,1.6,1.1,2.9v1.2c0,0-1.6,2.2-1.6,2.2l-7.1-.9-3.3.4-3.3,1.5-3.5,3.8-1.2,1,.5,1.5-2,2.8,2.7,4.1-1.1,1.1.6,2.8v1.8c0,0,2.4,4.4,2.4,4.4v1.6l-.9,6.4,3.8,2.1,1.2.4,3.4,2.7-.4,1.9-1.3,2.5h-2.4l-1.8.6.3,1.6,3.1,4.9.5,1.4-.6,2.1v2.8c0,0-2,2-2,2l-1.3.8-2.6.7-.9,2.4-1.5,1.5,1.6,4.4-.6,3.9-.7,1.4-1.9.2-1-1.8-.4-1-6-1.2-2.3-2.9-.4-3.1-2.5,1.2.6,1.1v2.3l-2.5,3.9-1.1-.2-1.3.8-1.3.2-.6-1-1.1.2-.8,1-3.4,1.3,1,.7-1.7,1-.6.9-2.7,1.5-4.3,3.9-2.3,1.1-1.6,1.2h-1.4l-1.8.9-4.6.9-3.1-.4-2.1.4-1.1-.7v-1.1h-1.2c0-.1-.8,1.1-.8,1.1l-1.6-.4.7-2.4h-3.1c0-.1-3.8-1.7-3.8-1.7l-.9-.8-3.1-1.3-1.4-1.4-.8-1.6.3-3.6.6-.5,2.7.8,2.8,1.3v-1.2c-.1,0-2.5-1.6-2.5-1.6l.8-1.8-.2-1.6,2.6-2.1-.4-.7-3.4,2-3.1.9-1.1,1.2-1.1.6h-2.1l-.5-.9.5-3.3,1.2-2.7,1.8-1,3.4.7,1-1,1.3-.2,2.4-1.2-4.1.5-1.2-1,2.8-2.4,1.2-1.4.3-1.5,2.2-1.7,1.8-.8,1.6.6,1.5-1.9-5,1.1-2,1.1-2.7,2.8-.2,1.1-2,.9-1.5,1.5-.6,1.2-2.8,1.9-1.4.3v-2.4l1.1-2-.3-1.6,3.2.2,1.8-1.2h-2.7l-1.4-.7-1.2-1.5-.6-1.9,1.1-1.8-2.2-2-.5-2.2v-2.5c-.1,0,.8-.5.8-.5l2.1.4,2.4-.2,5.2-.9,3.4.6h1.4c0-.1,2-.8,2-.8h1.9c0-.1,2.2,1.1,2.2,1.1l.7-.5,5.4-1.2-3-1.5v1.4c.1,0-3.5.3-3.5.3l-3.2-.6-1.3-.6-.5,1.3-1.1.3-3.4-.5-4.7.3-2.1.7h-1.4c0-.1-2.5-1.3-2.5-1.3l-.9-.9-.3-2.6,2.8-.3-1.9-2.3-1.9-1.3-.2-1.4.7-1.3,1.5.2h3.8c0-.1,6,1.4,6,1.4l4.9-.3-.8-.6h-2.9l-7.2-1.3h-2.2c0,.1-1.2-.2-1.2-.2l-.7-1,.4-1.9,1.1-.4,1.2.6,1.9-2.3,1.9-1,2-.5,2,1h1.3c0-.1,4-.9,4-.9l-1.3-.5-3.5.5-.2-.5,2.4-2.3,4.2-.4,5.9.5,2.3.8.4-1.8,5.3-1.4-6.8.8-1.8-.5-4.9.7v-1.3c-.1,0,2.2-2.3,2.2-2.3l4.1-.9,1.9-1.1,3.1-.2,2.6.3,1.2,1.3,4.4,1.7-5.1-4,1.1-1.7,3.3-.4v-1.6l-2.2-.3v-1.2l1.9-.9,2.8-.7,3.2.8-.6,1.3.9.5,1.7-1.5,3.9-.8,2.8,2.1.5,1.1,1.1-.5,2.7-.5,2.7.3,1.8-.2-1-1.3.4-1,2.4-1,1.7-.3,2.6-1.2-.8-1-1.4-.3,2.9-1.5-1.7-.6-2.4.9-1.6.9,1.5,1-1.1,1.1-6.1,2.8-3,.8h-1.4c0-.1-1.9-2.6-1.9-2.6h-2.1c0-.1,1.3-2.3,1.3-2.3l1.6-.8,1.4-2.3,2.3-1.3,3.2-3.3,2.8-1.1.9-1.1,3-1.5,3-.9.3-1-2.7.9.4-2.1,1.4-1,6.8-2.8,1.6,1.3,2.1-.2,2.3-1.6-.3-.7-2.1,1h-1.5l-.4-.6-2.1-.5-.3-1.2,1.3-2.8,3.4-3.3.5-1.3,1.3-.7,1.7.2-.2-1.1-2.1-1.1,6.2-1.1h3l2.4-.9.5-1-6.4,1.1h-2.4c0,.1-.8-2.6-.8-2.6l.2-1.5,1.9-2.2,1.4-.2,1.7-1.1v-1.5c0,0,2.4-.8,2.4-.8l2.1-2.1,2.3-.5,1.4.2,3-.7h6.6c0-.1,0-.7,0-.7l-6.3-.3-3.5.2-.4-.6,2.8-2.7,2-1,1.7.2,1.8,1,.6-.8-1.6-1.5.7-1.5-2.6,1.1-1.8.3-.9-2,2.3-2h2.3l.3-1.5,3.3-1.3,1.9-.2,1.5-.6.6.4.9,2.3,1.5.3,1-.8-1.3-1.1-1.1-1.8,2-1.5,2.3-.2,2.6.7,2.3-.2.9-1.2h-6.3c0-.1-.8-1-.8-1l1.2-1.2,2.2-.8h2.5c0-.1,2.4-1.5,2.4-1.5l.9-1.1.3-1.6,1.4-1.3,3.9-.8-.6-2.2.8-1.4,1-.6,2.1,1.5,1.8.5-.5-1.4.3-1.2h2.1l1-.5.3-1.3,1.4-1.2,4.7-.7.5,2.5.7,1.4.8-2.8,1.6-2.1,2.4-.9.9,1.1-.4,4.3-1.9,2.4,1.5-.2,2.5-2.3.6-1.2-.7-2.8.6-.8h3.5c0-.1,1.9.3,1.9.3l.7-1.5h1.7c0,0,1.8.8,1.8.8l4.1,1.4-1.3-2.2-1-.8-2.1-.5-2.2-1,1.2-1,2.4.3,2-.8,2.2-.2,1.1.6.8-1,2.5-.5,2.8.9,1.6,2.7,2.4,1.4v-1.4c0,0,.5-1.9.5-1.9l2.3-2,2.1-1h1.4c0,0,2.9-3.5,2.9-3.5l-1.6-1,3.3-2.3h1.1c0,0,5.4,2,5.4,2l1.5-.9,3.4.8-.8,1-3.1,2.9-.5.8v2.2c0,0-1.3,1.4-1.3,1.4l.8,1.4,1.6-.4,1.8-1.3v-1.3c0,0,4.4-3.7,4.4-3.7l1.9-2.1,2.3-1.7,1.5-.3.9,1.1-.2,1.5.2,4.3,3.7-1.4,1.1-3,1.1-.7-.8-1.4.4-1.1,2.3-1.3,2.2.4,3.3.3,2.7.8.2,1.4-.8.9-2.9,1.1.7.7,2-.6.9,5.5.9-2.1,1-.7v-1.5c0,0,.9-1.9.9-1.9l1.8-1.3h2.7l3.3,1.7,2.5.3,1.8.8,2.4-.7,2,1v1c0,0,3.9.3,3.9.3l3.8,1.6.6,1.6-4.4,1-1.8,1-3.3.4-11.5-.7.4.7,8.3,1.5.6.5.4,2.1,1.8.7,3.5-.2v-1.3l3.2.6,3.8.2,1.1,1.7-.3,1.5h-2.4c0,.1-4.2-1.3-4.2-1.3l-.4,2.3-1.1.9-5.8,1.3-1.1,2.6-2.2,1h0ZM425.4,16.4l3.7.5,2.2,1.4-3.6.5h-1.7c0,0-2-1.9-2-1.9l1.4-.5h0ZM355-24.7l-1,.5-1.9-.8-.8-1.2h3c0,0,.7,1.5.7,1.5Z"/>
  <path id="PL" class="st0" d="M439,251.8l.6-.6,2.3.7,4.5,2.2,1.1.9.8,3,2.1,5.1,2.9,4.9,1.7,3.6.9,3.9-.6,1.6-4,1.7-.8.5-2,2.7v1.2l3.3,1.3,1.8,1,.8,1-.2,2.4.4,1.1-.8,1.5v1.3c0,0,1.1,1.6,1.1,1.6l1.2,1.8v1.3l2.7,2.8,1.9,2.8,1.4,1-1.2,1.3,1.8,2.6v1.3c0,0-1.1,1.8-1.1,1.8l-3,.5-4.8,4.6-2.4,2.7-3.4,4.4-.6,1,1.5,3.8v1.8c0,0,1.8,1.4,1.8,1.4l-.4.9-3.3-.7-.9-.2-5.7-1.9-.8-1.4-1-.7-3.1-1-3.6-.3-3.2.2-1.4,1.5h-1.8c0-.1-2.4-1.1-2.4-1.1h-3c0,.1-2.3,1.1-2.3,1.1l-1.1,2.1-1.7-.6-1.4.4-.6-2.7-1.4-.4-3-3-2.2,1.3-1,1.7h-2.2l-.5-1.5-1.3-.2-.5-1.6-2.8-2.2-.5-1.8-2.7-.8-.5.2-3.5-1.8-1.8,1-1-.6-2.7-2.3,1.4-.5v-1.6l-3.6.7-3.3-1.9-2.2-.6h-1.3l1.7,2.4-3.5,2.5-1-.4-1.5-1.9-2-1.8-1.6-.9,1.6-1.2.7-1.1-1.8-1.2-3.2.7-.8-.9-2.7-1.1-4.6-1.1-1-1.1-.3-1.1-3.3-.8v1.9c0,0-2,.4-2,.4l1.6-3.6.4-2.3-1.6-3.2-2.2-.9v-1.6l-1.9-3.1.8-1.1.7-2.6-.8-1.9-2-2.3.6-2.6-1.4-1.7-3.3-2.1-1.6-1.4.7-1.6,1.9-1.8.3-2.7-1.8-4.1-.7-2.6,2.8.9.7-.5v-1.8c0,0-4.2-.7-4.2-.7v-1.2c0,0,1.9.4,1.9.4l3.8-1.4,6.5-1.8,6.9-1.7,3.3-.5,2-2.2,1.9-1.7,3.8-.7,1.3-.8,2.8-1.2,6.6-1.2,5.5-.4,5.4,2.3-.9.3-3-1.2,2.2,3.5,1.1,1.2,2,.9,1.7.3,4.9-.5,2.2-1.1h.5c0,.1,6.6.5,6.6.5l22.9.9h7c0,.1,0,.1,0,.1Z"/>
  <path id="PT" class="st0" d="M78.2,515.7l-1.2.2-4.5,2.5h-1.3l-2.5-1.1-4.5-.4-1.5-.3-1.8.7h-1.5l-1.1,1-.8-.3,1-2.1,1.6-4.1v-2.6l.4-2.2-.3-2.1-.7-1.4,1.1-3.5v-1.8l-.9-2.3,2.8.3-1.7-1.4h-1.5l-2.3.9h-1.5c0,0,.1-1.3.1-1.3l-.5-1.8,2-.6,1.6-1.7-.3-1.6-1.2,1.1-.6,1.4-2.8.7-1.5-.5v-1.9l.6-1.7.4-2.3.8-2.2-.2-1.4,1.6-1.3,1.4-1.9,4.3-8.9-.6-1,1.7-6.6,1.2-2.3.6-4.3-.2-2-.7-2-.7-4.3v-1.4l-.9-1.8v-1c.1,0,1.5-1.7,1.5-1.7l1.2-1.1,1.9-.9,4.1-1,1,1.8-1.3,1.9.9,1.3,3-1.1h2.9c0,0,2.2.7,2.2.7h1.4l2.5-.9.8-1.4,1.5.5h5.2c0,0,.7,1.2.7,1.2v3.1c.1,0,2,.2,2,.2l1.9.9.3,1.1-2.5,2.5-2.1,1.1-1.6,1.4-1.1,1.6-2,1.6.8,2,.4,3.5-.4,3.8.4,1.1-2.7,2.1-.2,1,1.4,1.3v1.9l-1.7,3.5-1,.5h-4.3l-1.1.3,1.1,1.9,1.4,1.2.3,1.9,1.6,3.2,1.7.4.5.8-.6,2.4-3.2,3-.9,4,3,4.3,1.7-.2-.7,2.4-2.1.6-3.5,4.3-.8,2.2,1.1,6.4h0Z"/>
  <path id="RO" class="st0" d="M523.6,387l1.5,1.6,1.8.9,4,.9.6-1.2.9.3,1.6-.5,2.2-1.3,2.2-.2,2.2.7,1.9,1.8-.2,4.3-.7,2.1-6.2,1.3.4-.6-.7-2-1-1-.9,1.1.6,1.7-.7,1.4-.2,2.4.6.9-1.6,2-.5,1.3.8,4.8-.4,3.7h-2l-2.6-.5-2.2-.7-2.5-2.6-1.7.5-.9-.6-3.2-.4-4.5-2.3-2.9.4-4.4.9-3.2,1.2-3.3,2.1-1.2,1.6-1.6.9-2.3.6-4.2-.2-9.4-1.7-2.5.5-3.5-.4-5.3-1-3.9-.3-3.7.6-.9-1.8,1.8-2-4.3-2.5-.8-1.2-1.6-.9-.5-1.7,2.5-1.8-3-1.6-1.7.5-1.7,1.8-1.3.2-1-1.2-1.5-.7-3.5-.7-1.5-1.2-2.1-.6.2-.6,1.8-.8-2.3-1.1,1.5-2-.9-1.1-2.6-.8-3.8-1.9-2.2-1.8-.4-4.1-.8.2-1.8-2-2.9-1.7-1.7-2,3.2-.9,1.4.5,2.5-2,2.6.3,1.3-.9,1.5-4.7,2.1-1.5-.2-1.3,1.6-2.7v-1.2l1.4-1.5.7-2.5,1.4-1.4v-1.7c0,0,1.1-1,1.1-1l1.9-2.4,4.6-1.1,2.2-2.3,2.1-.9.9-1.2h.7l2.7,1.5h2.7c0-.1,6.9,1.3,6.9,1.3l3.6-.7,1.2.3,4.3,3.3,2.1-.5,1-1.2,3.4-1.3,8.4-1.2,1.1-1.9.2-1.4,3.7-.8h2.1l2.5,1.6,2.5,3,3,4.9,1.5,1.3,2.5,3.2,2.1,1.8,1.3,1.7,3,2.1,1.4,2.9,1.4,2.3.5,2.9-.9,4.8v2.6c0,0,1.5,5,1.5,5l-.9.7,2,2.3h0Z"/>
  <path id="RS" class="st0" d="M423.8,376.9l1.7,2,2.9,1.7,1.8,2,.8-.2.4,4.1,2.2,1.8,3.8,1.9,2.6.8.9,1.1-1.5,2,2.3,1.1-1.8.8-.2.6,2.1.6,1.5,1.2,3.5.7,1.5.7,1,1.2,1.3-.2,1.7-1.8,1.7-.5,3,1.6-2.5,1.8.5,1.7,1.6.9.8,1.2-.9.7-.2,1.9-2.1,1-.4,2.3.6,2.4,2.4,3.9,2.9,1.5,1.3,1.6,1.6,1-.3,1.4-1.6,1.7-1.1,1.6h-1.8c0,0-1.1.7-1.1.7v3.3l1.4,2.9-1.1,1.7-1,.3-1.4-.7-2.3.8-1.9-.3-2,.9-2.2.3-.6-1.3,1-.9,1.2-3.2.2-1.2-4.7-1.2v-1.3l-2.2-1.2-.2-.7-2.3-2.1-2.8-1.3-1.1-1.3-1.7.9.6,1.6-.4,1-1.7,1.3v1.4l-1.5.5v-1c0,0-5.4-2.9-5.4-2.9l-2.1-.5-3-1.6-1.9-2-2.6-1.7-.4-1.2.7-.8,2.5.3.2-2.2-3.2-3.7.5-.8h3.1c0,.1.3-.7.3-.7l-3.3-2.9-2.4-1.2-.5-.8v-2.6c0,0,1.7-2.7,1.7-2.7l.5-2.5-1.5-.8-2.8.7,1-1.6-.7-2.6,1.7-.4h2.3c0-.1-.9-1.6-.9-1.6l-3-1-1.2-1,.4-2-1.3-.4-.2-1.6-1.6-2.7.7-1.5,2.1-1.3,1.6.5,2.2-1,1.5-1.6,1-.3,2.9.4,1.1-.2,2.8.3,1,.5h0Z"/>
  <path id="SK" class="st0" d="M447,331.5l-1.5,3-.8,2.9-1.6,1.7v2.5c0,0-4.2,1.1-4.2,1.1l-.6-.2-2.2-2.2-1.4-.9-4.6.7-2.5-.6h-2.7c0-.1-1.8.3-1.8.3l-1.6,3.5-5,2.5-3.5-1.4-.7.2-1,1.5-2.4.6-4.3.4-1.4.7-.4,1,.5,1.3-.6,1-7,.4h-4.7c0-.1-1.6-.8-1.6-.8l-4.2-2.7-2.1-.3-2.3-2.9-1.6-2.9v-.8c0,0,.8-2.4.8-2.4l1.1-2.8,1.4-1.2,3.6.5,1.7-.2,1.5-.7,2.1-1.9,1.6-.8.7-3,2.3-1.2.6-.8,2-1.5,2.8-.3,1.3.2.5,1.5h2.2l1-1.7,2.2-1.3,3,3,1.4.4.6,2.7,1.4-.4,1.7.6,1.1-2.1,2.3-1h3c0-.1,2.4.9,2.4.9h1.8c0,.1,1.4-1.4,1.4-1.4l3.2-.2,3.6.3,3.1,1,1,.7.8,1.4,5.7,1.9.9.2h0Z"/>
  <path id="SI" class="st0" d="M377.4,370.9l-2.5-.6-.9.8v1.7h-2l-.7,1-4.4,1.7-.4,1.4.9.9.2,2.2-.4,1.1-2.1.6-2.1,1,1,1.1-.7.7.8,2.3-1.2.4-1.6-.2-2-.7-1.3.5-1.5-.7-2.6-2.1-1.2,2.2-.6.3h-3.6c0,.1-1.1-.4-1.1-.4l-1.4,1.3-3.3-.8-.5-.6,1.7-1.1h1.5c0-.1-.2-1.4-.2-1.4l-1.5-1.3-1.9-1.1.4-2-1.3-.2-.3-1,1.6-2.1-2.3-.7-.7-1.4,3.3-2.3.2-.9,5,.9,5,.7,3-1.2,1-1.3,1.9-.7,2.6-.2,2.8.2,2.3-1.1,1.6-.2,2.4.5v-1.9c0,0,1.4-.9,1.4-.9h2.4c0,.1,1.4,3.4,1.4,3.4l1.9,2.2h0Z"/>
  <path id="SE" class="st0" d="M363.3,223.2l-1.5-.3-.3-3.8,2-4.6,1-.3,2.7-6.5.5,2-1.5,3.2-.3,2.2-.6.5-2,7.6h0ZM389.5,200.5l-1.3,1.4-1.4.5v3.3c0,0,1.6,1.2,1.6,1.2l-1.3.5-.7,1.8-1.8.6-1.5,1.6-.3,1.6-2.1.9,1.2-2.4-.9-.7-1.4-2.1.4-.9-.6-3.2,2.7-2.9,1.3-1.1,3.3-1h1.3l1.5.9h0ZM426.3,87.5l-2.7.3-2.2-.6-1,.3-3.8.3-1.1.7-2.1-.7-2-1.2-2,1.1-1.6-1-1,1.9v1.8c0,0-1.7-.2-1.7-.2l.3,1.1-2,1.5-3.2.2.7,1.5-.9.7,1,1.7-1.3,1.5-2.1,1.9-.5,1,1.7,1.1,1.6,2.5,1.6,1.1-.4,1.2-2.1,1.1-2.2,1.7-2,4.3-3.1,1.3-2.4,1.6-3,.7-2.4,2.2-1.8-.8-1.5.5-1,1.8-1.9,1.5-2.4-.2.2.8-2.3.3-1,4-2.2.6-.7.8-.9-.6h-2.1c0,.1,1.6,2.9,1.6,2.9l-1.7,1.8h-1.2l-1.5.7-1.9-.8-.2,1.2.8,1.3,1.3,1v1.3c0,0-1,4.3-1,4.3l.7,1.8-2.1,1.2-.8,1.1.6,1.7v1.1c0,0,.6,1.9.6,1.9l.8,4.2,1.1,2v1.6c0,0,1.2.9,1.2.9h2.1c0-.1,1.4,1.5,1.4,1.5l3.1-.8.8,1.1,2.9,2.2,1.7.3,1.9,1.2v1.5l2.9,1,1.9,2,.8,1.6v1c0,0-2.7,1.5-2.7,1.5l-1.3,1.3-3.8,2.1h-.6c0-.1-2.1.9-2.1.9l2,.6,1.4-.7,2.6-.6,1.4,1.2-2.2.5-.3,1.6-.8,1-2,.7-2.8,1.5-4,1.4-1.1,1.2-2.6,1-1.3.8h-7.5c0-.1,1,.8,1,.8l.9-.2,3.6.4,1.7,1.3-3,.9,1.7,3.2-.7.8.4,3.5h-1.1c0,.1-.3,1.5-.3,1.5l.6,2.5,1,2.1v1c0,0-1.6,2.4-1.6,2.4l.9,2.9-1.5,5.3-1.9,3.1-1.3,4.1-1.8,1.4-2.4-.9-3.4.5-3.2-.3-3,.2-.8.4.7,1.4-2.3-.2-1.7,1.1-2,2.1v1.5l1.9,3-1.7,2h-1.1l-3.2-.5-5.5,1.2-5.1-1,.5-1,.2-3.1-.6-1.7-1.3-1.1-3.1-3.8-1.2-2.3,2.4.9,1-.5-1.8-2.6h2.2c0-.1.7-1.1.7-1.1l-.6-1.5-1.9-.6-1.9-2.4-1.8-1.2-3.5-4.7-1.3-3.2-1.1.3-1.2-3.7-1.7-.6-.6-3.7-1.8-.4-1.3-1.7-.4-3.2-1.2-.6-.8-1.4-.8-3-.3-2.7-.9-1.8.5-1.2,1.1-.2,1.1.8,1,1.8,1.9-.2.7-1.4.6-3.9-1.6-4.4,1.5-1.5.9-2.4,2.6-.7,1.3-.8,1.9-2v-2.8c0,0,.7-2.1.7-2.1l-.5-1.4-3.1-4.9-.3-1.6,1.8-.6h2.4l1.3-2.5.4-1.9-3.4-2.7-1.2-.4-3.8-2.1.9-6.4v-1.6l-2.5-4.4v-1.8c0,0-.5-2.8-.5-2.8l1.1-1.1-2.7-4.1,2-2.8-.5-1.5,1.2-1,3.5-3.8,3.3-1.5,3.3-.4,7.1.9,1.7-2.2v-1.2c0,0-1.2-2.9-1.2-2.9l-4.7-1.6,4.4-5,3.3-5v-4.7c0,0,.7-2.7.7-2.7l-1.4-3.9,3.8-.4,2.4-.5,3.3-1.5-1-2.5,1.3-.9,3-2.9,3.3-2.9,1.5-1,.2-1.4-1-1.3-2.7-2.3.5-1.1,2.7-.6,1.1-1.1,1.5-3.5,3.7-1.9,1.5-.9,6.3,1.8,2.1-3.1-.8-3.6v-.8l2.1-.5,4.1.9h2.9c0,.1,8.6,1.8,8.6,1.8h1c0,.1,2.5-1.5,2.5-1.5l-2.9-.9,1.6-.9,1.4-1.9v-2c0,0-2.7-1.6-2.7-1.6l5.1-.2,2.9.8.4.9,2.9,1.1,4.8,2.3,4.2,1.8,8.3,1.7,3.5,1.8,1.2,1.6h1.4c0,.1,1.9,1.6,1.9,1.6l1.8.9-1.1,1,.4,2.4.7,1.4-.3,1.9,2.8.4.6,1.3-1,.8v1.1c0,0,.7,1.6.7,1.6l3.3,2.6.6.9-.7,1.4v1.8c0,0-1.4,1.3-1.4,1.3v1.3l1.3,2.6,1.8.6,1.9,2.2,1.6,2.5h0Z"/>
  <path id="TR" class="st0" d="M505.6,469.5l-2.9.5v-1.5c0,0,2.1-.6,2.1-.6l.8,1.6ZM700.1,448l4.3,1.3,1.1-1h3.6c0,0,3.4.9,3.4.9l.9-1.9,1.4-.4,1.4.3.6,1.1,1.2.4,3.5,2.5,1.1,1.7,1.9.2,1.3,1.2,1.3,1.6,1.7,1.2,1.7,3.3-.2,2.3-1,1.4.8,1.9,1.9,3-.5.6,1.8.9,2.9.9,3.5-.4,1.6.7,2.3,1.7,3.2,2.8.8.9-3.3-1.9-1.4,1.6v3.8c0,0-.7.4-.7.4h-2.8c0,0-1.2.3-1.2.3l1.2,2.5,1.4,1.2v2.3l2.1,2.5.2,2.1.9,2.2.3,2.2.5.7,1.4.3-.6,3.8-.6,1.2-.4,2,1.7.6,3.2,2v1.3c0,0,.7,1.5.7,1.5l.3,2,3.2,2.3v2.3l-2.1-.5-3.7,3.1-1.2-1.2-.3-2.4-1.5-1.5-1.3-.2-2.1,1.4-4.2-.3-2.9-1.1-2.9-.8-1.9.6-2.2-.7-1.5,1.9-2,1.9-1.2.3-1.6-2.6-1.3-.2-1.2,1.3-2.2.8-4.6,1-3.2.3-4.1-.6-3.2.2-3.1,1.4-5.2,2.8-4.1,1.4-4.2.9-7.6-.2-1.1-.3-3.5-2.3-3.4-.6-3.4,1.6-2.3.8-3.5,1.6h-4.8c0,0-1.9-1.8-1.9-1.8l-3.7-.7-.6,1.6-.3,3.8,1.8,3.1-3.3,1.4v2.6l-1.8,1.1-.8,1.6-2.2-1.2h-1c0,0,.7-1.4.7-1.4l-2.5-4.9.7-1.5,3.5-3.9-.4-2.4-2-1.6-2.9,2.1-1.7.8-.3,1.2-1.1.8-1.8.4-2.9-1-3.2-1.4-1.9-1.1-1.4-.3-1.3.5-3.5,2.8-3.1,4.1-.8.8-3.2,1.7-2.2.6h-1c0,0-4.4.7-4.4.7h-2.2c0,0-1.6,1-1.6,1l-3.5-1-2.2-1.3-1.4-1.3-2.3-2.9-1.6-1.3-3.3-1.2-5.8-3-5.3-.7-4-.3-.7,1.1v4.2c0,0-.4,1.2-.4,1.2v2.2c0,0-1.2,1.1-1.2,1.1l-2.1-1-1.9.9-3.7,1.3h-1.2c0,0-4.6-1.5-4.6-1.5l-2.9-2.1-.6-2-1.3-2.7-1.8.3-2.3-.4-3.2-1.6h-2.4c0,0-1.2,1.8-1.2,1.8l-1,.7-1.3-.4.8-1.3-3.7.2-1.8,1h-1.5c0,0-1-1.1-1-1.1l2-.6,3.9-.4.9-.4.9-1.3,1.7-1.2-1.2-.5-6,.3-4.2-.2-1,.7-.4-1.6,3.6-1.4-.3-1.3-4.2-2.2-.3-1.6-2-3.1,1.9-.5v-2.5c0,0-.3-1.5-.3-1.5l-3.9-1.3h-.8c0,0-1.1-1.2-1.1-1.2l-1.7-.9-1.2.7-3.3-1.4-.6-.6.5-1.4,1-1.1-.9-1.9v-1c0,0,1.7,0,1.7,0l1,1.1.3,2.2,3.6.7,2.9-.6-2.5-1.1-1.1-1.2-1.2-2.3,1.8-1.1,1.2-1.7-2.7-1.2.2-2.4-2.5-2.7.3-.8,2.3-2.8-1.2-.7-4.3.7-1.6.6-3.1.2-.3-1.6.6-1.3-.5-3.4.2-1.8,1.7-.6,1.7-2.7,3-3.1h3.5l1.3-.9h2.1l.8,1.2,1.9.9h3.2c0,0,1.4-1,1.4-1l-1.6-1.5,1.7-.5,1.5.4v1.8c0,0,4-.5,4-.5l4.4.4,1.4-.2h3.4l.5-.5-3.6-1.7,2-1.5,6.8-1.2,3.7-.8-5.7-.8-1.4-.6-2-1.4-1-1.1.3-2.6.6-.7h2.2c0,0,7.7,1.1,7.7,1.1l5.3-.8,6.1,1.8,5.6-.4,1.1-.7,1.1-2.6,7.4-4.2,2.4-2.1,2.8-1.2,5-1.4,4-1.7,1.2-.2,10.4.8h7c0,0,3-1.5,3-1.5l2,.5v2.1c0,0,2.5,2.6,2.5,2.6l3.5,1.4,4.4-1.2,1.8.5,2.2,4,1.5,1.4,1.8.9,1.3.2,1.5-1.4h1.7c0,0,2.9,1.2,2.9,1.2l1.2,1.4,4.8,1.1,4.3.6,2,1.2,6.2,1.2,2.2-.2,3.6-1.3,7-1.3,5.2,1.9h2.5c0,0,1.7.6,1.7.6l1.7-.3,5-2.3,1.4-1.2,1.7-.4,5.2-3.3.9-1.4h0ZM528.2,440.9v1.8c0,0,.9,2,.9,2l2.3,2.7,2,1.4,8.1,3.3,1.4.3-.9,3.5-2.1.5-6.4-1.5h-1.6c0,0-2.9,1.3-2.9,1.3l-2.3-.4-3.1.6-.6,2.1-2,2.4-3.3,1.9-2.5,1-3.5,3.7-1.5,2.2-1.5.7.5-2-.3-1.7,2.3-2,3.3-1.6.7-1.3-5.4.3h-3.3l-1-1.8.8-.4,2.5-3.2-.5-4.4,3.4-2.5-.9-3.1-2.3-1.5-1.2-.3.3-1.4,1.9-.3,1-2.2,3.4-.4,1.5-1.1,3.5-.3,3.4,2.5,1.5-.6h1.8l.9-.4,1.7.2h0Z"/>
  <path id="UA" class="st0" d="M568.9,375.4v.6l-3.9-.8-.9-.9,4.8,1.1h0ZM542.5,390l-1.9-1.8-2.2-.7-2.2.2-2.2,1.3-1.6.5-.9-.3-.6,1.2-4-.9-1.8-.9-1.5-1.6,1.1-.7,2-.2.4-1-.5-1.4,2.5-2.9v-1.3l2.3-1.7.4-2-1-1.7-.5-2.1,2.5-1.6,2.1,1,1.9.2,2.1.8,1.6-.6,1.2,1.3,2.9-.4.6-.7-2.9-1.7-.2-2.9-1-1.6-2.1-.8-2-1.3-.9-1.9v-2.4l-2.9-2-2.3-1.2-.6-1.2.6-3.1-.6-2.3-1.4-1.4-1.4.7-1.4-1-1.4-1.9-5.6-.6-.6-1.2-2.5-.3-3.6-2.4-3.5-1-1.6,1-.8-.3-1.2,1h-4c0-.1-.7-.3-.7-.3l-2.3,1.4-.2.6-3.7.8-.2,1.4-1.1,1.9-8.4,1.2-3.4,1.3-1,1.2-2.1.5-4.3-3.3-1.2-.3-3.6.7-6.9-1.4h-2.7c0,.1-2.7-1.4-2.7-1.4h-.7l-.9,1.2-2.1.9-.7-1.7-.9-.7-2.3-.4-.9-1.1-2.2-.8-1.4-2.3h-1.5v-2.5c0,0,1.5-1.7,1.5-1.7l.8-2.9,1.5-3,3.3.7.4-.9-1.9-1.4v-1.8c0,0-1.4-3.8-1.4-3.8l.6-1,3.4-4.4,2.4-2.7,4.8-4.6,3-.5,1.2-1.8v-1.3c0,0-1.9-2.6-1.9-2.6l1.2-1.3-1.4-1-1.9-2.8-2.7-2.8v-1.3l-1.2-1.8v-1.4c0,0,1-.5,1-.5l1.9.3,1.1.5,1.9-1.2,1.6-1.6.8-1.4,5.9-.5,2.3-.5h2.4c0-.1,7.8.3,7.8.3l6.5,1.5,6.1.9h2.3l1.8,2.1,1,.3h3c0-.1,1.1.3,1.1.3l.8,1.4,1.2-1.7,1.9.5,1.9-.7,5.1,1,.8,1.3,1,.3.6-1.1,3.8-1.6,2.5,3,.6.5,2.3-.8,7.1-.6,2,1.1.5,1.2,2.7.9.8-1.4-1.8-3.6,1-3.3.8-1.2,2.2-2.3,1.1-.5,1.7.4,1.4-.8h5c0,.1,2.6.9,2.6.9h1.7c0-.1,1.8-1,1.8-1l.5-2.4,1.6-.6,3.7.9h1c0-.1,2.7-1.3,2.7-1.3l1.6-.2,2,.3,3.4-.2,2.5,1.4,1.4,1.4,1.7,2.7,4,3v1c0,0-3,.5-3,.5l1.3,1.9.5,2,1.2,1.7-.4,1h3.1c0,.1,2.9,1.1,2.9,1.1l4.1-.5,1.5,2.2,1.9.2.2.9,1.4,2.8.9,1.1-.2,1.8.5,1,1.9,1.6.7,1,1.1.4,2.3-1.4,2.8.4,2.7,2h2.3l1.7,1.1,1.4-1.3,4.3-.9,2.3-1h1c0,.1,2.3,1.9,2.3,1.9l.5,1.2,1.5,1.6,4.7,2.9,1.3-.6.9-1.5,2.6,1.4,2.4.2,3.6,1.9h1.4c0,.1,1.6-.5,1.6-.5l2,1.8,1.9.2,4.4,2.3,2.9-.3,1,.8v1.7c0,0,.9.9.9.9v2.6c0,0-1.8,2.1-1.8,2.1l-2.3.8,1.1,1.5,3.1.9-.9.9-1.4-.2-.8,1-.3,2.3,2.5.7,1.2,2.8v1.1l1.2.3-1.3,4.7v1.8c0,0-4.3.2-4.3.2l-6-.3-.9.2-.9,1.9-2.3,1.4-1.7.2-.8.8v2.3l-.4,1.3,1.1.7-.7,1.6.5,1.3h-.5c0,.1-4.3-.1-4.3-.1l-3.4.3-2.1,2.4h-1.5l-3.2,1.5-1.4,1.7-1.4-.8-3.1.5-1.7,1.1h-3.1c0-.1-2.3.5-2.3.5l-4.6,3.8h-1.3c0,.1-1-.9-1-.9l-1.6,2.6-2.4,1.2.6,3.1,2.8,4.5,3.6,3.9,1.7,1.4,2.4.7,3.1-1.4,2.4.4,1.7-1.2h1.5c0-.1,3.7.9,3.7.9l-1.1,2.5-.3,2.6-1.9.6h-2.2c0-.1-2.2.3-2.2.3l-2.7-1.5h-2.5l-1.1,1.9-2.3,1.3-.6,1.4-2.6-.3-2.1.2-2.8,1.4-1.9,2.8-2.3,1.8-1.9.5h-2c0-.1-1.3-.7-1.3-.7l-2.9-1.8.7-2,.5-3.5-1.2-2.9-2.3-1.4-1.6.2-.9-.3-3.7-2.4-1.9-.2-1.9.5-1.5-1.2,3.5-2.9,3.5-2.4,1.7-.2,2.1-1.2,2.2-1.6-1.3-2.3-1.9.6-2.2-1.1-.9-.8-3.1.8h-1.8c0-.1-3.8.7-3.8.7l-1.9-.8-4-2-2.6-.3v-1l1.8-.3v-1c0,0-3.7-.6-3.7-.6v-1.3c0,0,1.9.5,1.9.5l3.2.2,2.9.5,2.1-1.8-2.4.5-2.9-.5-2.1-1.8-2.2,1.2-3.2-.5-2.4.8-2.3-.2-4.1,1.1-.4,2.9-2,4-3.1,3.7-4.6,2.1-1.7-.4-.9,1.1.2,1.3,1,.9,1.1,3.1v1.3c0,0,0,0,0,0Z"/>
  <path id="XK" class="st0" d="M446.2,436.6l-2.1.4-1.5,1.9-1.6-1.2h-1c0,0-3.4,1.6-3.4,1.6l-.2,2.6-.5.8-1.7-.3v-2.2c0,0-1.5-3.2-1.5-3.2l-1.9-1.3-1.4-.5-2-2.9-.5-.4.2-1.3-.9-1.5,2-.4.2-.7,1.6-.4,1.5-.5v-1.4l1.7-1.3.4-1-.6-1.6,1.7-.9,1.1,1.3,2.8,1.3,2.3,2.1.2.7,2.2,1.2v1.3l4.7,1.2-.2,1.2-1.2,3.2-1,.9.6,1.3h0Z"/>
  <path id="NL" class="st0" d="M224.4,296.3l-.6,1.2-3.2,1.5-3.9-1.1-1.2.6-1.2-.7-.3-1.3,2.8-.4,3.5.7,1.5-.6,1.2.5,1.4-.4h0ZM221,291l1.5,1.4-1.5.3-1.6-1,1.6-.7h0ZM239.1,282.5l-3-.4-.9-.7,2.4-1.7,3.2-1.5,1.7.4.5.9-1.1,1.1-2.8,1.9h0ZM231.5,271l-1.1,1.1-.6-1.4,1.7-1.4v1.7h0ZM224.4,296.3l-2.6-.8-2.2.5-2.8-.7-1.7-1.3,1.2-.7h2.3c0-.1,4,.6,4,.6l1.2-.9-.6-1-2.3-2.1,1.6-2.7,1.4-1,3.2-3.8.9-2,1.2-5.5,1-2,1.4.5,2-.8,3.4-2,1-1.7,1-.9,4-1.6,2.1-.4,8.9-.5,1.8,1.7,2.7.6v4.3c.1,0-.6,1.7-.6,1.7l-1.1,3.8h-3.1c0-.1-.6,1.5-.6,1.5l.7,1,2.6.3.8,1-.6,2.6-2.6,1.6-.3.9,1,.9-.7,1-4.5,1.3-2.3-.8-1.8.7-.7,1.1,3.1,4.1v1.2l-1.3,2.8.7,1.2-2.2,1.6-.5.8,1.9,1.2-.6,2.4h-1.2c0-.1-2.4-.4-2.4-.4l-.7-1.1,1.1-1.3,1-2.9-2.6-1.1-1.7-1.3-1.9.4-2.6-1.4-.5-1.6-2.5.8-1.1-1.3-1.5,1-1.5-.8-1.4.7.2.9-2.1-.3h0ZM242.5,280.7l.9-.9-.5-1.9-2.1-.3-.5-.8.4-2.5-2.8-.4-.4-2.5-1.5.3-2.3,1.5.6,1.3,1.6,1.6v.9l-2.1.7v2.6c.1,0-.1,1.6-.1,1.6l5.4,1.4,3.4-2.6h0Z"/>
  <path id="ES" class="st0" d="M192.6,488.5l-.4,1-2-.4v-1.5l1.2-1.6,2.7-.7.8,1.3-2.3,1.9h0ZM214.3,474.9l1.2.5,1.3-.5,1.4.4.2,1-2.2,3.5-.6,1.4-2.1,1.3-4-1.7-.3-1.6-1.4-.7-1.7,1.3-1.4-1-.3-1.2,5.3-3.7,1.5-.9,3.2-.9.5,1.2-.6,1.6h0ZM229,474.1l-.3.2-3.9-1.9-1.6-.4v-1.4c.1,0,2.7-.2,2.7-.2l2.1.7,1.2,1.8-.2,1.2h0ZM151.6,418.6l.5,1.3,4.3,1.3-.3,3.2,1.8-.4,4.4,1.7,2.2.2,2.2,2.1,3.6-.4,3.2,2.1,3.1-.4.7.4h4.7l.8-2.4,4,1.1,2.5,1,1.7.3,1.1,1.5v2.1l.7.4,2.8-1.1,2.8,1.2,1.3,1.2,2.1-1.1,4.7,1.2,1.2-.8,3.8-1.1,3.1.6,1.2,2.2-1.8.5-.2,1.4,1.2,1.3v2.1c.1,0-2.9,2.8-2.9,2.8l-8.7,4.7-2.9,2.7-6.6,1.5-4.5,1.5-2.2.5-4.1,3.8,1.1.3,1.2,1.2-.4.6-2.5,1.1h-.9l-2.9,4.6-2.6,3.3-1.5,1.5-1.5,2.1-3.2,5.6v1.6c-.1,0,1.5,5.5,1.5,5.5l2.2,2.7,2.4,1.1.6,1-.8,1-2.4,1.7-4.3,2.3-1.8,1.9-.3,1.8-1.3.8-.5,2.5-1.8,4.4,1.3,1.2-1.3.8-6.5.3-4.1,2.8-2,2.4-1.9,4.5-2.2,2.6-1,.5-1.5-1.2h-1.9c0,0-1.9.2-1.9.2l-1,1-1.5.5-1.5-.5-4.6-.2-2.3.8-1.9-.5-3.2-.3-7,.6-4,3.4h-3.4l-3.1,1.2-2.1,3-.5,1.6-1-.3-.3,1.2-2.1.8-2.4-1-2-1.5h-1c0,0-1.6-2.3-1.6-2.3l-1.2-3.1v-1.1l-1.5-.6-.3-1.4.2-1.6-1.2-2-5-3.7-3.7-.3-3,.5-1.1-6.4.8-2.2,3.5-4.3,2.1-.6.7-2.4-1.7.2-3-4.3.9-4,3.2-3,.6-2.4-.5-.8-1.7-.4-1.6-3.2-.3-1.9-1.4-1.2-1.1-1.9,1.1-.3h4.3l1-.5,1.7-3.5v-1.9l-1.4-1.3.2-1,2.7-2.1-.4-1.1.4-3.8-.4-3.5-.8-2,2-1.6,1.1-1.6,1.6-1.4,2.1-1.1,2.5-2.5-.3-1.1-1.9-.9-1.9-.2v-3.1c-.1,0-.8-1.1-.8-1.1h-5.2c0,0-1.5-.6-1.5-.6l-.8,1.4-2.5.9h-1.4l-2.2-.8h-2.9c0,0-3,1.2-3,1.2l-.9-1.3,1.3-1.9-1-1.8-4.1,1-1.9.9-1.2,1.1h-1.3v-2.6l2.6-2.6-1.6-.2,1.2-1.9-1-1v-2.6c.1,0-2.2.9-2.2.9l-.5-1.2,1.4-2.2-1.4-.2-2.3-2.5.8-3.1,2-1,1.9-1.5,2.6.3,1.7-.3,3.6-1.6-.4-1.5.4-.7,3.2-1.7,2-.2,1.9-.9,1.3.5h1.1c0-.1,1.3.5,1.3.5l1.7,1.6,2.5.6,2-.5h3.6c0-.1,1.7,0,1.7,0l3.2-.3h1.8c0,.1,2.9-.7,2.9-.7l2.3,1,4.4.4,2.6.8,7.2,1.4h2.7l3.7-.8,1.6-.5,1.5.3,2.1-.6,2.3,1,4.7,1.3,2.1-1.3,3.4.6,3.3,1.3h1.8c0,0,2.6-.2,2.6-.2l2.5-1h0Z"/>
  <path id="FR" class="st0" d="M293.4,427.9l-.3,2.3,1,1.7.6,6.5-1.8,3.2v3c0,0-1.5,4.3-1.5,4.3l-.8,1.1-3.8-2-1.2-1.1,1-1.8-2.2-.9.4-1.7-.2-.9-1.6-.5,1-1.3v-.8l-1.5-1-.3-.9,1.3-1.1-.6-.9v-1.3c.1,0,1-1.9,1-1.9l1.2-.9,2.8-.8,1.2-1.1,1.9.6.6-1.2-.2-2.7.3-1.1,1.3.5.4,2.7h0ZM159.5,380l-.4,1.4-1.9-2.4,1-.5,1.3,1.5ZM243.9,324.4l2.1,1.2h1.4l2-.6,1.3.7h1.4c0,.1,3.5,4.4,3.5,4.4l1.8-.7,1.4.4.3.9h2.1c0,.1,3-.5,3-.5l2,1.4,4.8.8,1.6.6v1.3c.1,0-3.4,3.8-3.4,3.8l-1.4,5.5-1,1.8-.3,1.5.2,2.4-.6,2v1.5l1.1,1.3-1.5.7-.8,1.4-2.7.3-.8-.8h-1.1l-1.8,1.4,1.3,1.1-.6.9-3.8,4-2.1.9-.5,2.9-3,2.2-1.1,2.9.8.7-.3,1.5-1.5,1v1h1.4c0,.1,2.3-1.5,2.3-1.5l-.5-1.3,2.3-1.5h1.9c0-.1,2.2.2,2.2.2l.8,2.2-.5,1.7,2.3,2.3.9,1.4-2.6,1.7v1.6c.1,0,1,.6,1,.6l1.7,2.6,1.8,1.6-.8,2.5-1.2.3-1.7,1.3-1.9-.2-.8.4,1.5,3.1,3.2,1.4.5,1.7-.8.7-1.4,2.5.7,1.3v1.4c.1,0,1,.9,1,.9l5.1,2.4,3.3-.6.3,2-2.1,2.6.2,1.5-.6.3-.8.3-2.4,1.1-3.9,3.4-1.8,1-.7,1.8-2,1.4-2.4.5-2.3,1-1.1-.4h-2.8l-1.7-1.2-3.4-.8-1.1-1.8h-2.5c0,0-.8-1.6-.8-1.6l-1.9.3-1.5.7h-2c0,0-5.9-1.9-5.9-1.9l-1.4-1.4-1.7.5-1.6,1.6-6.5,4.1-2.6,4.3v1.2c-.1,0,.6,3.9.6,3.9l1.6,2.5-3.1-.6-3.8,1.1-1.2.8-4.7-1.2-2.1,1.1-1.3-1.2-2.8-1.2v-1.5l-2.6-.6-.9.7-1.1-1.5-1.7-.3-2.5-1-4-1.1-.8,2.4h-4.7l-.7-.4-3.1.4-3.2-2.1-3.6.4-2.2-2.1-2.2-.2-4.4-1.7-1.8.4.3-3.2-4.3-1.3-.5-1.3,2-.5,1.9-1.9,1.7-7.1,1.3-8.3,1-1.6,1.2-.4-1-1.2-1.1,1.5.7-7.6.5-2.8.9-3,3.1,2.4.8,1,.9,3.4h.6c0,.1-1.1-4.5-1.1-4.5l-1.8-2.3-3.6-2.3-.5-1.3,1.8-.6-.5-1.8-.5-5.9-3-.6-4.8-2.6-1.7-2.6-1.6-1.9-.4-1.7.9-1.8-.8-1.1-1.4-.8,1.1-1.6-3-.2-1.8-.5-.3-1.1,1.3-1.4-1.6-.8-2.6.2-.2-1.7-2.2.3-1.2-.3-1.1-1.1-1.3.2-2.2-.4-.8-.7-4.8-1.3h-2c0-.1-1.9.5-1.9.5l-1.1-.3-1.3-2.2-3.1-1.1.6-.7,3.1-.6.6-.7-2.2-.9-.2-1.2,1.6.3v-1.2c.1,0-3.9.1-3.9.1l-.4-1.3.5-1.4,2.3-1.2,5.8-1.4,2.5.2,1.7-.2,3-1.6,2.9-.4,2.7.8,2.5,2.8,1.2,1,3.1-1.7h4.4c0,.1.9,1,.9,1l1.2-1.7,1,1,4.7-.2-1.5-2.5-.2-6-1.3-1.7-2.1-4.3.2-1.4,3.2.3,2.7-.6,1.3.4.3,2.8,1.1,1.6h2.2l2.3.5h3c0,.1,4.3.9,4.3.9l1.8-.5,3.5-2-1.8-.7-.2-.7.9-2.2,5.2-2.5,3.7-.7,3.8-1.3,2-1.4,1.2-1.8.5-1.3.3-6.8,1-2.2,2.9-1.6,6.4-1.1.9-.5.9,2.2v1.2l2.9,2.4,3.2-1,1.6,1.8.5,2,4.2,1.1.6,2,.9-.3,3.6.4,1.6,1.1-.4,1.6.7.7-.7,1.4.5.6,2.3.3,2.2-.3,1.3-.6.5-1.4,1.9-.6-.8,2.7.6.6.4,2h1.7c0,.1,3.3,1.6,3.3,1.6l2.8,2.6,3.4-.4h0Z"/>
  <path id="PT1" data-name="PT" class="st0" d="M78.2,515.7l-1.2.2-4.5,2.5h-1.3l-2.5-1.1-4.5-.4-1.5-.3-1.8.7h-1.5l-1.1,1-.8-.3,1-2.1,1.6-4.1v-2.6l.4-2.2-.3-2.1-.7-1.4,1.1-3.5v-1.8l-.9-2.3,2.8.3-1.7-1.4h-1.5l-2.3.9h-1.5c0,0,.1-1.3.1-1.3l-.5-1.8,2-.6,1.6-1.7-.3-1.6-1.2,1.1-.6,1.4-2.8.7-1.5-.5v-1.9l.6-1.7.4-2.3.8-2.2-.2-1.4,1.6-1.3,1.4-1.9,4.3-8.9-.6-1,1.7-6.6,1.2-2.3.6-4.3-.2-2-.7-2-.7-4.3v-1.4l-.9-1.8v-1c.1,0,1.5-1.7,1.5-1.7l1.2-1.1,1.9-.9,4.1-1,1,1.8-1.3,1.9.9,1.3,3-1.1h2.9c0,0,2.2.7,2.2.7h1.4l2.5-.9.8-1.4,1.5.5h5.2c0,0,.7,1.2.7,1.2v3.1c.1,0,2,.2,2,.2l1.9.9.3,1.1-2.5,2.5-2.1,1.1-1.6,1.4-1.1,1.6-2,1.6.8,2,.4,3.5-.4,3.8.4,1.1-2.7,2.1-.2,1,1.4,1.3v1.9l-1.7,3.5-1,.5h-4.3l-1.1.3,1.1,1.9,1.4,1.2.3,1.9,1.6,3.2,1.7.4.5.8-.6,2.4-3.2,3-.9,4,3,4.3,1.7-.2-.7,2.4-2.1.6-3.5,4.3-.8,2.2,1.1,6.4h0Z"/>
  <path id="CY" class="st0" d="M615.4,550.1h-.2,0c0,0,0,0,0,0ZM615.4,550.1h.3c0,0,0,0,0,0h-.2ZM615,549.8h0c0,0,0,0,0,0h0c0,0,0,0,0,0h0c0,0,0,0,0,0ZM618.5,549h.2c0,0,.3.4.3.4l.2.4v.3c0,0,.3.2.3.2h.2c0,0-.2,0-.2,0h-.6c0,0-.2-.3-.2-.3h-.9c0,0-.6.2-.6.2h0c0,0,0,.2,0,.2h-.7c0,0,.2-.2.2-.2h0v-.3h-.5v-.5h0c0,0-.3-.2-.3-.2v-.2h0c0,0,.2-.2.2-.2h0c0,0,0,.2,0,.2h.2c0,0,0-.2,0-.2h0c0,0,0-.2,0-.2l.2.2h.2c0,0,0,0,0,0h.2c0,0,0,0,0,0h.3c0,0,.2,0,.2,0h0c0,0,.2,0,.2,0h.2q0,0,0-.1ZM614.5,550.1v.2h-.3c0,0-.3.4-.3.4v.5c0,0,0,.3,0,.3v.6h0c0,0,0,0,0,0h0v.4h0c0,0-.2,0-.2,0h-.6c0,0,0,.2,0,.2v.2c0,0-.2,0-.2,0h-.2c0,0-.4.2-.4.2l-.4.2h-.3c0,0-.2-.2-.2-.2v.5c0,0-.3.2-.3.2l-.9.2h-.2c0,0,0,.2,0,.2h-.2c0,0-.2,0-.2,0h-.9c0,0-1,0-1,0h0c0,0-.2.2-.2.2l-.6.5v.3h-.7v.2h0c0,0,0-.3,0-.3v-.2c0,0,.2,0,.2,0h.3v-.4c0,0-.5,0-.5,0l-.2.2h0c0,0-.2,0-.2,0h0c0,0-.4,0-.4,0l-.3-.2h0v-.3h-.5v.2h-.2v.2h-.6c0,0,0,.3,0,.3h-.2c0,0-.5,0-.5,0h-.6c0,0-.5-.3-.5-.3l-.7-.4h-.3c0,0-.3-.2-.3-.2h-.8c0,0-.2-.3-.2-.3l-.6-.4h0c0,0,0-.5,0-.5h0c0,0,0-.2,0-.2l-.4-.9h0c0,0-.3-.3-.3-.3h-.2c0,0,0-.2,0-.2v-.2c0,0,0-.2,0-.2v-.2c0,0-.2-.4-.2-.4v-.2c0,0,0-.4,0-.4v-.2c0,0-.4-.5-.4-.5l-.2-.3v-.4c0,0,0-.3,0-.3h.4c0,0,.4.6.4.6h.3c0,0,.2.2.2.2h.6l.4-.2.3-.4.3-.4v-.5c0,0,.2-.3.2-.3h.2c0,0,0-.2,0-.2h0c0,0,0,0,0,0h0c0,0,0,0,0,0h.3c0,0,.2.3.2.3h.3l.2-.2v-.2c0,0,0-.2,0-.2h.4c0,0,.2.5.2.5v.2c0,0,.2.2.2.2h.2c0,0,.4.2.4.2h.3c0,0,.2.3.2.3h.2c0,0,0,.3,0,.3v.2h0c0,0,0,.2,0,.2h.5c0,0,0-.3,0-.3v-.2c0,0,.2,0,.2,0h0c0,0,0,.2,0,.2h.2c0,0,.2,0,.2,0h.2c0,0,.2-.3.2-.3l.2-.2h.2c0,0,.3-.3.3-.3v-.2h.6c0,0,.3,0,.3,0h.5c0,0,0,0,0,0v-.2c0,0,.4-.2.4-.2h.4c0,0,0,.2,0,.2h.3l.2.2.2.2h.2c0,0,.3.2.3.2h.2v-.4c0,0,.4-.3.4-.3h.9v.4c0,0,.2,0,.2,0l.2.2.2.2h0c0,0,0,.4,0,.4v1.2c0,0,0,.2,0,.2h0c0,0,.2,0,.2,0h.2v-.7h0c0,0,0-.2,0-.2h0c0,0,0,0,0,0v.4c0,0,.2.2.2.2h0c0,0,.3,0,.3,0v-.2h0c0,0,.2,0,.2,0h0c0,0,.2,0,.2,0h0c0,0,0,0,0,0h0l.3.2h.3l.3.2h0Z"/>
  <rect id="_x30_" class="st0" x="172.1" y="294.6"/>
  <rect id="_x31_" class="st0" x="347.6" y="315.8"/>
  <rect id="_x32_" class="st0" x="293.2" y="170.4"/>
</svg>