<svg xmlns="http://www.w3.org/2000/svg" viewBox="0 0 200 200">
  <rect width="200" height="200" fill="#f4f6f8" rx="16" />
  <rect x="20" y="20" width="60" height="60" fill="#111827" rx="6" />
  <rect x="120" y="20" width="60" height="60" fill="#111827" rx="6" />
  <rect x="20" y="120" width="60" height="60" fill="#111827" rx="6" />
  <rect x="120" y="120" width="60" height="60" fill="#111827" rx="6" />
  <g fill="#111827">
    <rect x="92" y="34" width="16" height="16" />
    <rect x="92" y="62" width="16" height="16" />
    <rect x="34" y="92" width="16" height="16" />
    <rect x="62" y="92" width="16" height="16" />
    <rect x="120" y="92" width="16" height="16" />
    <rect x="148" y="92" width="16" height="16" />
    <rect x="92" y="120" width="16" height="16" />
    <rect x="92" y="148" width="16" height="16" />
  </g>
  <rect x="64" y="170" width="72" height="12" rx="6" fill="#d1d5db" />
</svg>
