<?xml version="1.0" encoding="UTF-8"?>
<svg id="Layer_1" xmlns="http://www.w3.org/2000/svg" version="1.1" viewBox="0 0 110 107.1">
  <!-- Generator: Adobe Illustrator 29.0.0, SVG Export Plug-In . SVG Version: 2.1.0 Build 186)  -->
  <defs>
    <style>
      .st0 {
        fill-rule: evenodd;
      }
    </style>
  </defs>
  <path class="st0" d="M66.7,54.9v-21.8c-1.8,0-3.3-1.4-3.6-3.1l-.2-.8-29-.4v4.8l21.6,20.1c.2.2.3.6.2.9,0,.3-.4.5-.7.5H11.3c-.3,0-.6-.2-.7-.5-.1-.3,0-.6.2-.9l21.6-20.1v-4.8l-21.1-.3c-.4,0-.8-.4-.8-.8v-2.3c0-.4.4-.8.8-.8h1.5l57.1-10v-3.2c0-.4.4-.8.8-.8h3.1c.4,0,.8.4.8.8v3.5l10.4,9h1.3c.4,0,.8.4.8.8v2.3c0,.9-.3,1.8-.8,2.6v2.9c0,1.3-1.1,2.3-2.3,2.3h-1.6c-1.3,0-2.3-1.1-2.3-2.3v-.8h-.8v.8c0,.4-.4.8-.8.8h-.8v19.5h-1.6v-3l-2.7,2.2,1.1.9c-2.8.3-5.4,1-7.8,2.1h0ZM84.7,30.9c-.7.4-1.5.6-2.3.6h-.8v.8c0,.4.4.8.8.8h1.6c.4,0,.8-.4.8-.8v-1.4h0ZM21.8,24.5h40.3c0-.2,0-.4.2-.5,0-.2.4-.3.6-.3h7v-7.7l-48.1,8.4h0ZM68.3,49.6v4.5l2.7-2.2-2.7-2.2h0ZM68.3,34v4.5l2.7-2.2-2.7-2.2h0ZM68.3,41.8v4.5l2.7-2.2-2.7-2.2h0ZM74.7,33.1h-5.1l2.5,2.1,2.5-2.1h0ZM76.1,46.3v-4.5l-2.7,2.2,2.7,2.2h0ZM74.5,16.9v6.9h8l-8-6.9ZM76.1,38.5v-4.5l-2.7,2.2,2.7,2.2h0ZM72.2,37.3l-3.5,2.9,3.5,2.9,3.5-2.9-3.5-2.9ZM17.4,53.4h31.4l-15.7-14.6s-15.7,14.6-15.7,14.6ZM33.1,43.3c2.2,0,3.9,1.8,3.9,3.9s-1.8,3.9-3.9,3.9-3.9-1.8-3.9-3.9,1.8-3.9,3.9-3.9ZM76.9,31.6h.8v-6.2h-13.9l.9,4.4c.2,1.1,1.2,1.9,2.3,1.9h9.9,0ZM72.2,45.1l-3.5,2.9,3.5,2.9,3.5-2.9-3.5-2.9ZM51.1,60.5v25c0,.4-.4.8-.8.8H15.9c-.4,0-.8-.4-.8-.8v-25c0-.4.4-.8.8-.8h34.4c.4,0,.8.4.8.8ZM40.2,84.7h9.4v-20.3H16.7v20.3h9.4v-14.8c0-.4.4-.8.8-.8h12.5c.4,0,.8.4.8.8v14.8ZM27.7,72.2h10.9v-1.6h-10.9s0,1.6,0,1.6ZM76.9,54.2c12.5,0,22.7,10.2,22.7,22.7s-10.2,22.7-22.7,22.7-22.7-10.2-22.7-22.7,10.2-22.7,22.7-22.7ZM76.9,55.8c-11.6,0-21.1,9.5-21.1,21.1s9.5,21.1,21.1,21.1,21.1-9.5,21.1-21.1-9.5-21.1-21.1-21.1ZM66.8,80h-4c-.2,0-.5,0-.6-.3,0-.2-.2-.4-.2-.7l.4-1.9c.2-1.1,1.2-1.9,2.3-1.9h0l.9-5.3c.5-3.3,2.9-5.9,5.9-6.8,0-.4.3-.9.6-1.2.4-.5,1.1-.8,1.7-.8h6c.7,0,1.3.3,1.7.8.3.3.5.8.6,1.2,3,.9,5.4,3.5,5.9,6.8l.9,5.3h0c1.1,0,2.1.8,2.3,1.9l.4,1.9c0,.2,0,.5-.2.7s-.4.3-.6.3h-4l2.5.9c.4,0,.6.5.5.9-.2,1-.5,2-1,2.9-.2.3-.5.5-.9.4l-2.8-.8c-.2.4-.5.7-.8,1.1l1.6,2.5c.2.3.2.7,0,1-.8.7-1.6,1.3-2.5,1.8-.3.2-.8,0-1-.2l-1.9-2.3c-.4.2-.8.3-1.3.4l-.2,2.9c0,.4-.3.7-.7.7-1,0-2.1,0-3.1,0-.4,0-.7-.4-.7-.7l-.2-2.9c-.4,0-.9-.2-1.3-.4l-1.9,2.3c-.2.3-.7.4-1,.2-.9-.5-1.7-1.1-2.5-1.8-.3-.3-.3-.7,0-1l1.6-2.5c-.3-.3-.6-.7-.8-1.1l-2.8.8c-.4,0-.8,0-.9-.4-.4-.9-.8-1.9-1-2.9,0-.4,0-.7.5-.9l2.5-.9h.3ZM89,76.9h-24.3c-.4,0-.7.3-.8.6l-.2.9h26.2l-.2-.9c0-.4-.4-.6-.8-.6h.1ZM81.5,80h-9.2c.4,2.2,2.3,3.9,4.6,3.9s4.2-1.7,4.6-3.9h0ZM66.3,75.3h6.1l-.8-10.5c-2.3.9-4,2.9-4.4,5.4l-.8,5.1h0ZM81.3,75.3h6.1l-.8-5.1c-.4-2.5-2.2-4.6-4.4-5.4l-.8,10.5h0Z"/>
</svg>