<?xml version="1.0" encoding="UTF-8"?>
<svg id="Layer_1" xmlns="http://www.w3.org/2000/svg" version="1.1" viewBox="0 0 110 116.9">
  <!-- Generator: Adobe Illustrator 29.0.0, SVG Export Plug-In . SVG Version: 2.1.0 Build 186)  -->
  <path d="M85,21.8c-.2-.3-.3-.8-.2-1.2,0-.4.3-.8.7-1l4.7-3.1c.3-.2.8-.3,1.2-.2.4,0,.8.3,1,.7.2.3.3.8.2,1.2,0,.4-.3.8-.7,1l-4.7,3.1c-.2.2-.6.3-.9.3-.5,0-1-.3-1.3-.7h0ZM18.2,19.1l4.7,3.1c.2.2.6.3.9.3.7,0,1.3-.5,1.5-1.1.2-.7,0-1.4-.6-1.7l-4.7-3.1c-.7-.5-1.7-.3-2.2.4-.5.7-.3,1.7.4,2.2h0ZM22.2,31.9c0-.9-.7-1.6-1.6-1.6h-6.2c-.9,0-1.6.7-1.6,1.6s.7,1.6,1.6,1.6h6.2c.9,0,1.6-.7,1.6-1.6ZM95.6,30.3h-6.2c-.9,0-1.6.7-1.6,1.6s.7,1.6,1.6,1.6h6.2c.9,0,1.6-.7,1.6-1.6s-.7-1.6-1.6-1.6ZM80,50.6h-46.9c-.6,0-1.1.3-1.4.8-2.1,4-3.3,8.4-3.3,12.9l-6.1,15.1c-.1.4-.2.8-.2,1.2,0,2.4,1.9,4.3,4.3,4.3h3.5v4.7c0,4.3,3.5,7.8,7.8,7.8h3.1v7.8c0,.9.7,1.6,1.6,1.6s1.6-.7,1.6-1.6v-7.8h6.2c.9,0,1.6-.7,1.6-1.6s-.7-1.6-1.6-1.6h-12.5c-2.6,0-4.7-2.1-4.7-4.7v-6.2c0-.9-.7-1.6-1.6-1.6h-5.1c-.3,0-.6,0-.8-.3-.2-.2-.3-.5-.3-.8v-.2l6.1-15.2c0-.2.1-.4.1-.6,0-3.8.9-7.5,2.5-10.9h45c1.6,3.4,2.5,7.1,2.5,10.9,0,6.6-2.6,13-7.4,17.7-.3.3-.4.7-.5,1.1v21.8c0,.9.7,1.6,1.6,1.6s1.6-.7,1.6-1.6v-21.2c4.1-4.3,6.7-9.7,7.6-15.6.8-5.9-.3-11.8-3.1-17.1-.3-.5-.8-.8-1.4-.8h.2ZM91.8,44.6l-4.7-3.1c-.7-.5-1.7-.3-2.2.4s-.3,1.7.4,2.2l4.7,3.1c.2.2.6.3.9.3.7,0,1.3-.5,1.5-1.1.2-.7,0-1.4-.6-1.7h0ZM25,42c-.2-.3-.6-.6-1-.7-.4,0-.8,0-1.2.2l-4.7,3.1c-.6.4-.8,1.1-.6,1.7.2.7.8,1.1,1.5,1.1s.6,0,.9-.3l4.7-3.1c.3-.2.6-.6.7-1,0-.4,0-.8-.2-1.2v.2ZM27.8,35.8c-1-2.5-1.2-5.2-.5-7.8,1.8-6.9,9.3-8.5,9.7-8.6.5-.1,1.1,0,1.5.5.4.4.5,1,.4,1.5-.9,3.2.4,4.7,1.9,6.5,1.5,1.8,3.3,4,2.4,7.6,0,.3-.2.6-.4.9,1,.8,2,1.8,2.9,2.7v-21.3c0-2.6,2.1-4.7,4.7-4.7h9.4c2.6,0,4.7,2.1,4.7,4.7v20.4l4.2-7.2c0-.2.3-.4.5-.5h0l11.7-7.7c.5-.3,1.1-.4,1.6,0,.5.3.8.9.8,1.4l-.8,14h0c0,.2,0,.5-.2.7l-4.6,7.9c-.4.7-1.4,1-2.1.6s-1-1.4-.6-2.1l3.8-6.6-2.7-1.6-5.6,9.7c-.4.8-1.4,1-2.1.6s-1-1.4-.6-2.1l5.6-9.7-2.7-1.6-7.4,12.8c-.3.5-.8.8-1.3.8s-1.1-.3-1.4-.8-.3-1.1,0-1.6l.9-1.5v-.8h-3.1c-.9,0-1.6-.7-1.6-1.6s.7-1.6,1.6-1.6h3.1v-3.1h-6.2c-.9,0-1.6-.7-1.6-1.6s.7-1.6,1.6-1.6h6.2v-3.1h-3.1c-.9,0-1.6-.7-1.6-1.6s.7-1.6,1.6-1.6h3.1v-3.1h-6.2c-.9,0-1.6-.7-1.6-1.6s.7-1.6,1.6-1.6h6.2v-3.1c0-.9-.7-1.6-1.6-1.6h-9.4c-.9,0-1.6.7-1.6,1.6v25.1c.5.7,1,1.4,1.5,2.1.5.7.3,1.7-.5,2.2-.2.2-.6.3-.9.3-.5,0-1-.3-1.3-.7-.8-1.2-1.6-2.2-2.3-3.2-2.1,2.1-4.8,3.5-7.7,3.9h-.2c-.7,0-1.2-.4-1.5-1-.6-1.7-1.1-3.5-1.4-5.3-.3,0-.7,0-1-.2-2.6-.7-4.8-2.7-5.8-5.2h0ZM30.7,34.5c.6,1.6,2,2.9,3.7,3.4.5,0,1,.2,1.5,0h0c.7,0,1.4-.3,2-.6.6-.4,1.1-.8,1.5-1.4h0c.3-.4.5-.9.6-1.4.5-2-.2-3-1.7-4.8-1.8-1.7-2.9-4.1-3-6.6-2.4,1-4.3,3-5.1,5.5-.5,1.9-.4,3.9.3,5.8h.2Z"/>
</svg>